<svg width="16" height="16" viewBox="0 0 16 16" fill="none" xmlns="http://www.w3.org/2000/svg">
<path d="M4.11111 5.85714L7.02778 8C7.30367 8.20286 7.64657 8.31339 8 8.31339C8.35343 8.31339 8.69633 8.20286 8.97222 8L11.8889 5.85714M15 11.5714V4.42857C15 4.04969 14.8361 3.68633 14.5444 3.41842C14.2527 3.15051 13.857 3 13.4444 3H2.55556C2.143 3 1.74733 3.15051 1.45561 3.41842C1.16389 3.68633 1 4.04969 1 4.42857V11.5714C1 11.9503 1.16389 12.3137 1.45561 12.5816C1.74733 12.8495 2.143 13 2.55556 13H13.4444C13.857 13 14.2527 12.8495 14.5444 12.5816C14.8361 12.3137 15 11.9503 15 11.5714Z" stroke="white" stroke-linecap="round" stroke-linejoin="round"/>
</svg>
