<svg width="25" height="24" viewBox="0 0 25 24" fill="none" xmlns="http://www.w3.org/2000/svg">
<path d="M8.5 12H8.51M12.5 12H12.51M16.5 12H16.51M8.4 20C10.3086 20.9791 12.5041 21.2443 14.5909 20.7478C16.6777 20.2514 18.5186 19.0259 19.7818 17.2922C21.045 15.5586 21.6474 13.4308 21.4806 11.2922C21.3137 9.15366 20.3886 7.14502 18.8718 5.62824C17.355 4.11146 15.3464 3.1863 13.2078 3.01946C11.0693 2.85263 8.94147 3.45509 7.20782 4.71829C5.47417 5.98149 4.24869 7.82236 3.75222 9.90916C3.25575 11.996 3.52094 14.1915 4.5 16.1L2.5 22L8.4 20Z" stroke="white" stroke-width="1.5" stroke-linecap="round" stroke-linejoin="round"/>
</svg>
