<svg width="60" height="60" viewBox="0 0 60 60" fill="none" xmlns="http://www.w3.org/2000/svg">
<path d="M30 60C46.5686 60 60 46.5685 60 30C60 13.4315 46.5686 0 30 0C13.4315 0 0 13.4315 0 30C0 46.5685 13.4315 60 30 60Z" fill="url(#paint0_radial_0_844)"/>
<path d="M27.9353 33.4999C27.846 33.1538 27.6656 32.838 27.4129 32.5853C27.1602 32.3326 26.8444 32.1522 26.4983 32.0629L20.3635 30.481C20.2588 30.4513 20.1667 30.3882 20.1011 30.3014C20.0355 30.2146 20 30.1088 20 30C20 29.8912 20.0355 29.7854 20.1011 29.6986C20.1667 29.6118 20.2588 29.5487 20.3635 29.519L26.4983 27.9361C26.8443 27.8469 27.16 27.6666 27.4127 27.4141C27.6654 27.1616 27.8458 26.846 27.9353 26.5001L29.5172 20.3652C29.5466 20.2602 29.6096 20.1676 29.6966 20.1016C29.7835 20.0357 29.8896 20 29.9987 20C30.1078 20 30.214 20.0357 30.3009 20.1016C30.3878 20.1676 30.4508 20.2602 30.4802 20.3652L32.0612 26.5001C32.1504 26.8461 32.3308 27.162 32.5835 27.4147C32.8363 27.6674 33.1521 27.8478 33.4981 27.9371L39.633 29.518C39.7385 29.5471 39.8315 29.61 39.8978 29.6971C39.9641 29.7841 40 29.8906 40 30C40 30.1094 39.9641 30.2158 39.8978 30.3029C39.8315 30.39 39.7385 30.4529 39.633 30.482L33.4981 32.0629C33.1521 32.1522 32.8363 32.3326 32.5835 32.5853C32.3308 32.838 32.1504 33.1538 32.0612 33.4999L30.4792 39.6348C30.4498 39.7398 30.3868 39.8324 30.2999 39.8984C30.213 39.9643 30.1068 40 29.9977 40C29.8886 40 29.7825 39.9643 29.6956 39.8984C29.6086 39.8324 29.5456 39.7398 29.5162 39.6348L27.9353 33.4999Z" fill="white"/>
<defs>
<radialGradient id="paint0_radial_0_844" cx="0" cy="0" r="1" gradientUnits="userSpaceOnUse" gradientTransform="translate(10.8126 19.3963) scale(42.9338)">
<stop stop-color="#A9C4FF"/>
<stop offset="0.198" stop-color="#A6C2FF"/>
<stop offset="0.4921" stop-color="#8CB1FF"/>
<stop offset="0.8443" stop-color="#4679E6"/>
<stop offset="1" stop-color="#3970E6"/>
</radialGradient>
</defs>
</svg>
