<svg width="290" height="136" viewBox="0 0 290 136" fill="none" xmlns="http://www.w3.org/2000/svg">
<rect x="0.5" y="0.5" width="288.5" height="135" rx="63.5" fill="white" fill-opacity="0.3"/>
<rect x="0.5" y="0.5" width="288.5" height="135" rx="63.5" stroke="url(#paint0_linear_0_759)"/>
<path d="M83.8078 96.1719C79.8495 96.1719 76.2036 95.4688 72.8703 94.0625C69.537 92.6042 66.6203 90.625 64.1203 88.125C61.6203 85.625 59.6672 82.7344 58.2609 79.4531C56.9068 76.1198 56.2297 72.5781 56.2297 68.8281C56.2297 65.0781 56.9068 61.5625 58.2609 58.2812C59.6672 54.9479 61.6203 52.0312 64.1203 49.5312C66.6203 47.0312 69.537 45.0781 72.8703 43.6719C76.2036 42.2135 79.8495 41.4844 83.8078 41.4844C87.6099 41.4844 90.7089 42.0052 93.1047 43.0469C95.5526 44.0885 97.688 45.4427 99.5109 47.1094V54.8438C98.3651 54.0104 97.063 53.099 95.6047 52.1094C94.1984 51.1198 92.5318 50.2604 90.6047 49.5312C88.7297 48.75 86.4641 48.3594 83.8078 48.3594C79.9016 48.3594 76.412 49.2448 73.3391 51.0156C70.2661 52.7865 67.8443 55.2344 66.0734 58.3594C64.3026 61.4323 63.4172 64.9219 63.4172 68.8281C63.4172 72.7344 64.3026 76.224 66.0734 79.2969C67.8443 82.3698 70.2661 84.8177 73.3391 86.6406C76.412 88.4115 79.9016 89.2969 83.8078 89.2969C87.8182 89.2969 91.2297 88.6458 94.0422 87.3438C96.9068 85.9896 99.2505 84.6094 101.073 83.2031V90.2344C99.2505 91.849 96.8547 93.2552 93.8859 94.4531C90.9693 95.599 87.6099 96.1719 83.8078 96.1719ZM126.077 96.1719C123.108 96.1719 120.373 95.651 117.873 94.6094C115.426 93.5156 113.264 92.0312 111.389 90.1562C109.566 88.2292 108.16 86.0417 107.17 83.5938C106.181 81.0938 105.686 78.4635 105.686 75.7031C105.686 72.9427 106.181 70.3385 107.17 67.8906C108.16 65.3906 109.566 63.2031 111.389 61.3281C113.264 59.401 115.426 57.8906 117.873 56.7969C120.373 55.7031 123.108 55.1562 126.077 55.1562C129.045 55.1562 131.754 55.7031 134.202 56.7969C136.702 57.8906 138.863 59.401 140.686 61.3281C142.561 63.2031 143.993 65.3906 144.983 67.8906C145.972 70.3385 146.467 72.9427 146.467 75.7031C146.467 78.4635 145.972 81.0938 144.983 83.5938C143.993 86.0417 142.561 88.2292 140.686 90.1562C138.863 92.0312 136.702 93.5156 134.202 94.6094C131.754 95.651 129.045 96.1719 126.077 96.1719ZM126.077 89.9219C128.889 89.9219 131.311 89.2708 133.342 87.9688C135.426 86.6146 137.014 84.8698 138.108 82.7344C139.254 80.5469 139.827 78.2031 139.827 75.7031C139.827 73.151 139.254 70.8073 138.108 68.6719C137.014 66.4844 135.426 64.7396 133.342 63.4375C131.311 62.0833 128.889 61.4062 126.077 61.4062C123.316 61.4062 120.894 62.0833 118.811 63.4375C116.728 64.7396 115.113 66.4844 113.967 68.6719C112.873 70.8073 112.327 73.151 112.327 75.7031C112.327 78.2031 112.873 80.5469 113.967 82.7344C115.113 84.8698 116.728 86.6146 118.811 87.9688C120.894 89.2708 123.316 89.9219 126.077 89.9219ZM169.283 96.1719C165.949 96.1719 162.903 95.3385 160.142 93.6719C157.382 91.9531 155.168 89.5833 153.502 86.5625C151.887 83.5417 151.08 80.0521 151.08 76.0938C151.08 71.7708 151.887 68.0469 153.502 64.9219C155.168 61.7969 157.434 59.401 160.298 57.7344C163.163 56.0156 166.366 55.1562 169.908 55.1562C172.147 55.1562 174.413 55.7031 176.705 56.7969C179.048 57.8385 181.054 59.2969 182.72 61.1719V38.75H189.127V95H182.72V88.3594C181.366 90.4427 179.517 92.2656 177.173 93.8281C174.882 95.3906 172.252 96.1719 169.283 96.1719ZM170.298 89.9219C172.694 89.9219 174.83 89.2969 176.705 88.0469C178.58 86.7969 180.064 85.0781 181.158 82.8906C182.252 80.651 182.772 78.151 182.72 75.3906L182.642 67.8906C181.028 65.8594 179.283 64.2969 177.408 63.2031C175.585 62.1094 173.476 61.5625 171.08 61.5625C168.267 61.5625 165.871 62.2656 163.892 63.6719C161.913 65.026 160.377 66.7969 159.283 68.9844C158.241 71.1719 157.72 73.5417 157.72 76.0938C157.72 78.5938 158.241 80.9115 159.283 83.0469C160.324 85.1302 161.783 86.7969 163.658 88.0469C165.585 89.2969 167.798 89.9219 170.298 89.9219ZM216.864 96.1719C213.895 96.1719 211.161 95.651 208.661 94.6094C206.213 93.5156 204.052 92.0312 202.177 90.1562C200.354 88.2292 198.947 86.0417 197.958 83.5938C196.968 81.0938 196.473 78.4635 196.473 75.7031C196.473 72.0052 197.281 68.5938 198.895 65.4688C200.51 62.3438 202.723 59.8438 205.536 57.9688C208.401 56.0938 211.656 55.1562 215.302 55.1562C219.312 55.1562 222.645 55.9896 225.302 57.6562C227.958 59.3229 229.937 61.5885 231.239 64.4531C232.593 67.3177 233.27 70.5469 233.27 74.1406V77.9688H202.489V72.5H226.942C226.682 69.9479 225.953 67.8646 224.755 66.25C223.609 64.6354 222.203 63.4375 220.536 62.6562C218.869 61.8229 217.124 61.4062 215.302 61.4062C212.802 61.4062 210.64 62.0833 208.817 63.4375C206.994 64.7396 205.588 66.4844 204.598 68.6719C203.609 70.8073 203.114 73.151 203.114 75.7031C203.114 78.2031 203.661 80.5469 204.755 82.7344C205.901 84.8698 207.515 86.6146 209.598 87.9688C211.682 89.2708 214.104 89.9219 216.864 89.9219C219.677 89.9219 222.281 89.2188 224.677 87.8125C227.124 86.3542 229.182 84.7656 230.848 83.0469V90C230.119 90.8854 229.026 91.8229 227.567 92.8125C226.161 93.75 224.52 94.5312 222.645 95.1562C220.822 95.8333 218.895 96.1719 216.864 96.1719Z" fill="url(#paint1_linear_0_759)"/>
<defs>
<linearGradient id="paint0_linear_0_759" x1="42.4669" y1="-35.7" x2="275.551" y2="261.378" gradientUnits="userSpaceOnUse">
<stop stop-color="white"/>
<stop offset="1" stop-color="#D2E1FF"/>
</linearGradient>
<linearGradient id="paint1_linear_0_759" x1="70.1718" y1="46.9268" x2="128.198" y2="152.456" gradientUnits="userSpaceOnUse">
<stop stop-color="#A299FA"/>
<stop offset="0.293253" stop-color="#3A93F8"/>
<stop offset="0.508253" stop-color="#7DB4F3"/>
<stop offset="0.788253" stop-color="#0B3EAA"/>
</linearGradient>
</defs>
</svg>
