<svg width="444" height="136" viewBox="0 0 444 136" fill="none" xmlns="http://www.w3.org/2000/svg">
<rect x="0.5" y="0.5" width="443" height="135" rx="63.5" fill="white" fill-opacity="0.3"/>
<rect x="0.5" y="0.5" width="443" height="135" rx="63.5" stroke="url(#paint0_linear_0_761)"/>
<path d="M76.8687 96.1719C72.9104 96.1719 69.2646 95.4688 65.9312 94.0625C62.5979 92.6042 59.6812 90.625 57.1812 88.125C54.6812 85.625 52.7281 82.7344 51.3219 79.4531C49.9677 76.1198 49.2906 72.5781 49.2906 68.8281C49.2906 65.0781 49.9677 61.5625 51.3219 58.2812C52.7281 54.9479 54.6812 52.0312 57.1812 49.5312C59.6812 47.0312 62.5979 45.0781 65.9312 43.6719C69.2646 42.2135 72.9104 41.4844 76.8687 41.4844C80.6708 41.4844 83.7698 42.0052 86.1656 43.0469C88.6135 44.0885 90.749 45.4427 92.5719 47.1094V54.8438C91.426 54.0104 90.124 53.099 88.6656 52.1094C87.2594 51.1198 85.5927 50.2604 83.6656 49.5312C81.7906 48.75 79.525 48.3594 76.8687 48.3594C72.9625 48.3594 69.4729 49.2448 66.4 51.0156C63.3271 52.7865 60.9052 55.2344 59.1344 58.3594C57.3635 61.4323 56.4781 64.9219 56.4781 68.8281C56.4781 72.7344 57.3635 76.224 59.1344 79.2969C60.9052 82.3698 63.3271 84.8177 66.4 86.6406C69.4729 88.4115 72.9625 89.2969 76.8687 89.2969C80.8792 89.2969 84.2906 88.6458 87.1031 87.3438C89.9677 85.9896 92.3115 84.6094 94.1344 83.2031V90.2344C92.3115 91.849 89.9156 93.2552 86.9469 94.4531C84.0302 95.599 80.6708 96.1719 76.8687 96.1719ZM101.481 95V55.9375H107.887V95H101.481ZM107.887 71.4062V63.75C109.398 61.1458 111.221 59.0625 113.356 57.5C115.492 55.9375 117.679 55.1562 119.919 55.1562C121.429 55.1562 122.783 55.4167 123.981 55.9375V63.3594C123.2 62.8906 122.393 62.526 121.559 62.2656C120.726 62.0052 119.867 61.875 118.981 61.875C116.325 61.875 114.164 62.8125 112.497 64.6875C110.882 66.5625 109.346 68.8021 107.887 71.4062ZM146.641 96.1719C143.672 96.1719 140.937 95.651 138.437 94.6094C135.99 93.5156 133.828 92.0312 131.953 90.1562C130.13 88.2292 128.724 86.0417 127.734 83.5938C126.745 81.0938 126.25 78.4635 126.25 75.7031C126.25 72.0052 127.057 68.5938 128.672 65.4688C130.286 62.3438 132.5 59.8438 135.312 57.9688C138.177 56.0938 141.432 55.1562 145.078 55.1562C149.089 55.1562 152.422 55.9896 155.078 57.6562C157.734 59.3229 159.714 61.5885 161.016 64.4531C162.37 67.3177 163.047 70.5469 163.047 74.1406V77.9688H132.266V72.5H156.719C156.458 69.9479 155.729 67.8646 154.531 66.25C153.385 64.6354 151.979 63.4375 150.312 62.6562C148.646 61.8229 146.901 61.4062 145.078 61.4062C142.578 61.4062 140.417 62.0833 138.594 63.4375C136.771 64.7396 135.365 66.4844 134.375 68.6719C133.385 70.8073 132.891 73.151 132.891 75.7031C132.891 78.2031 133.437 80.5469 134.531 82.7344C135.677 84.8698 137.292 86.6146 139.375 87.9688C141.458 89.2708 143.88 89.9219 146.641 89.9219C149.453 89.9219 152.057 89.2188 154.453 87.8125C156.901 86.3542 158.958 84.7656 160.625 83.0469V90C159.896 90.8854 158.802 91.8229 157.344 92.8125C155.937 93.75 154.297 94.5312 152.422 95.1562C150.599 95.8333 148.672 96.1719 146.641 96.1719ZM185.862 96.1719C182.529 96.1719 179.482 95.3385 176.722 93.6719C173.961 91.9531 171.748 89.5833 170.081 86.5625C168.467 83.5417 167.659 80.0521 167.659 76.0938C167.659 71.7708 168.467 68.0469 170.081 64.9219C171.748 61.7969 174.014 59.401 176.878 57.7344C179.743 56.0156 182.946 55.1562 186.487 55.1562C188.727 55.1562 190.993 55.7031 193.284 56.7969C195.628 57.8385 197.633 59.2969 199.3 61.1719V55.9375H205.706V95H199.3V88.3594C197.946 90.4427 196.097 92.2656 193.753 93.8281C191.461 95.3906 188.831 96.1719 185.862 96.1719ZM186.878 89.9219C189.274 89.9219 191.409 89.2969 193.284 88.0469C195.159 86.7969 196.644 85.0781 197.737 82.8906C198.831 80.651 199.352 78.151 199.3 75.3906L199.222 67.8906C197.607 65.8594 195.862 64.2708 193.987 63.125C192.165 61.9792 190.055 61.4062 187.659 61.4062C184.847 61.4062 182.451 62.1094 180.472 63.5156C178.493 64.9219 176.956 66.7448 175.862 68.9844C174.821 71.1719 174.3 73.5417 174.3 76.0938C174.3 78.5938 174.821 80.9115 175.862 83.0469C176.904 85.1302 178.362 86.7969 180.237 88.0469C182.165 89.2969 184.378 89.9219 186.878 89.9219ZM230.944 96.1719C228.756 96.1719 226.855 95.7292 225.241 94.8438C223.626 93.9062 222.376 92.6042 221.491 90.9375C220.605 89.2708 220.162 87.3438 220.162 85.1562V61.9531H212.662V60.0781C215.215 58.9323 217.35 57.0573 219.069 54.4531C220.787 51.7969 222.298 48.5417 223.6 44.6875H226.569V55.9375H239.147V61.9531H226.569V84.8438C226.569 86.4583 227.09 87.7344 228.131 88.6719C229.225 89.6094 230.631 90.0781 232.35 90.0781C233.912 90.0781 235.319 89.8958 236.569 89.5312C237.871 89.1146 238.912 88.6719 239.694 88.2031V93.8281C238.652 94.6615 237.428 95.2604 236.022 95.625C234.616 95.9896 232.923 96.1719 230.944 96.1719ZM254.072 47.8125C252.561 47.8125 251.285 47.2656 250.244 46.1719C249.254 45.0781 248.759 43.8542 248.759 42.5C248.759 41.0938 249.254 39.8698 250.244 38.8281C251.285 37.7344 252.561 37.1875 254.072 37.1875C255.061 37.1875 255.947 37.4479 256.728 37.9688C257.561 38.4375 258.212 39.0885 258.681 39.9219C259.15 40.7031 259.384 41.5625 259.384 42.5C259.384 43.3854 259.15 44.2448 258.681 45.0781C258.212 45.9115 257.561 46.5885 256.728 47.1094C255.947 47.5781 255.061 47.8125 254.072 47.8125ZM251.65 95V55.9375H258.056V95H251.65ZM245.478 61.9531V55.9375H258.056V61.9531H245.478ZM280.794 95L263.216 55.9375H270.872L282.669 84.6875L295.481 55.9375H303.137L284.778 95H280.794ZM314 47.8125C312.49 47.8125 311.214 47.2656 310.172 46.1719C309.182 45.0781 308.688 43.8542 308.688 42.5C308.688 41.0938 309.182 39.8698 310.172 38.8281C311.214 37.7344 312.49 37.1875 314 37.1875C314.99 37.1875 315.875 37.4479 316.656 37.9688C317.49 38.4375 318.141 39.0885 318.609 39.9219C319.078 40.7031 319.312 41.5625 319.312 42.5C319.312 43.3854 319.078 44.2448 318.609 45.0781C318.141 45.9115 317.49 46.5885 316.656 47.1094C315.875 47.5781 314.99 47.8125 314 47.8125ZM311.578 95V55.9375H317.984V95H311.578ZM305.406 61.9531V55.9375H317.984V61.9531H305.406ZM343.769 96.1719C341.581 96.1719 339.68 95.7292 338.066 94.8438C336.451 93.9062 335.201 92.6042 334.316 90.9375C333.43 89.2708 332.987 87.3438 332.987 85.1562V61.9531H325.487V60.0781C328.04 58.9323 330.175 57.0573 331.894 54.4531C333.612 51.7969 335.123 48.5417 336.425 44.6875H339.394V55.9375H351.972V61.9531H339.394V84.8438C339.394 86.4583 339.915 87.7344 340.956 88.6719C342.05 89.6094 343.456 90.0781 345.175 90.0781C346.737 90.0781 348.144 89.8958 349.394 89.5312C350.696 89.1146 351.737 88.6719 352.519 88.2031V93.8281C351.477 94.6615 350.253 95.2604 348.847 95.625C347.441 95.9896 345.748 96.1719 343.769 96.1719ZM361.272 113.75L375.256 87.4219L389.788 55.9375H397.444L368.694 113.75H361.272ZM372.678 93.125L355.178 55.9375H362.834L378.303 88.4375L372.678 93.125Z" fill="url(#paint1_linear_0_761)"/>
<defs>
<linearGradient id="paint0_linear_0_761" x1="65.1306" y1="-35.7" x2="259.733" y2="344.7" gradientUnits="userSpaceOnUse">
<stop stop-color="white"/>
<stop offset="1" stop-color="#D2E1FF"/>
</linearGradient>
<linearGradient id="paint1_linear_0_761" x1="89.6658" y1="46.9268" x2="128.523" y2="172.321" gradientUnits="userSpaceOnUse">
<stop stop-color="#A299FA"/>
<stop offset="0.293253" stop-color="#3A93F8"/>
<stop offset="0.508253" stop-color="#7DB4F3"/>
<stop offset="0.788253" stop-color="#0B3EAA"/>
</linearGradient>
</defs>
</svg>
