<svg width="402" height="136" viewBox="0 0 402 136" fill="none" xmlns="http://www.w3.org/2000/svg">
<rect x="0.5" y="0.5" width="401" height="135" rx="63.5" fill="white" fill-opacity="0.3"/>
<rect x="0.5" y="0.5" width="401" height="135" rx="63.5" stroke="url(#paint0_linear_0_763)"/>
<path d="M76.5734 96.1719C72.6151 96.1719 68.9693 95.4688 65.6359 94.0625C62.3026 92.6042 59.3859 90.625 56.8859 88.125C54.3859 85.625 52.4328 82.7344 51.0266 79.4531C49.6724 76.1198 48.9953 72.5781 48.9953 68.8281C48.9953 65.0781 49.6724 61.5625 51.0266 58.2812C52.4328 54.9479 54.3859 52.0312 56.8859 49.5312C59.3859 47.0312 62.3026 45.0781 65.6359 43.6719C68.9693 42.2135 72.6151 41.4844 76.5734 41.4844C80.3755 41.4844 83.4745 42.0052 85.8703 43.0469C88.3182 44.0885 90.4536 45.4427 92.2766 47.1094V54.8438C91.1307 54.0104 89.8286 53.099 88.3703 52.1094C86.9641 51.1198 85.2974 50.2604 83.3703 49.5312C81.4953 48.75 79.2297 48.3594 76.5734 48.3594C72.6672 48.3594 69.1776 49.2448 66.1047 51.0156C63.0318 52.7865 60.6099 55.2344 58.8391 58.3594C57.0682 61.4323 56.1828 64.9219 56.1828 68.8281C56.1828 72.7344 57.0682 76.224 58.8391 79.2969C60.6099 82.3698 63.0318 84.8177 66.1047 86.6406C69.1776 88.4115 72.6672 89.2969 76.5734 89.2969C80.5839 89.2969 83.9953 88.6458 86.8078 87.3438C89.6724 85.9896 92.0161 84.6094 93.8391 83.2031V90.2344C92.0161 91.849 89.6203 93.2552 86.6516 94.4531C83.7349 95.599 80.3755 96.1719 76.5734 96.1719ZM116.577 95.7812C113.452 95.7812 110.639 95.1042 108.139 93.75C105.639 92.3958 103.66 90.4688 102.202 87.9688C100.743 85.4688 100.014 82.5 100.014 79.0625V55.9375H106.655V79.0625C106.655 82.4479 107.644 85.0521 109.623 86.875C111.655 88.6458 113.972 89.5312 116.577 89.5312C119.181 89.5312 121.472 88.6458 123.452 86.875C125.483 85.0521 126.498 82.4479 126.498 79.0625V55.9375H133.139V79.0625C133.139 82.5 132.41 85.4688 130.952 87.9688C129.493 90.4688 127.514 92.3958 125.014 93.75C122.514 95.1042 119.702 95.7812 116.577 95.7812ZM142.048 95V55.9375H148.455V95H142.048ZM148.455 71.4062V63.75C149.965 61.1458 151.788 59.0625 153.923 57.5C156.059 55.9375 158.246 55.1562 160.486 55.1562C161.996 55.1562 163.351 55.4167 164.548 55.9375V63.3594C163.767 62.8906 162.96 62.526 162.127 62.2656C161.293 62.0052 160.434 61.875 159.548 61.875C156.892 61.875 154.731 62.8125 153.064 64.6875C151.449 66.5625 149.913 68.8021 148.455 71.4062ZM175.802 47.8125C174.291 47.8125 173.015 47.2656 171.973 46.1719C170.984 45.0781 170.489 43.8542 170.489 42.5C170.489 41.0938 170.984 39.8698 171.973 38.8281C173.015 37.7344 174.291 37.1875 175.802 37.1875C176.791 37.1875 177.677 37.4479 178.458 37.9688C179.291 38.4375 179.942 39.0885 180.411 39.9219C180.88 40.7031 181.114 41.5625 181.114 42.5C181.114 43.3854 180.88 44.2448 180.411 45.0781C179.942 45.9115 179.291 46.5885 178.458 47.1094C177.677 47.5781 176.791 47.8125 175.802 47.8125ZM173.38 95V55.9375H179.786V95H173.38ZM167.208 61.9531V55.9375H179.786V61.9531H167.208ZM208.07 96.1719C205.102 96.1719 202.367 95.651 199.867 94.6094C197.419 93.5156 195.258 92.0312 193.383 90.1562C191.56 88.2292 190.154 86.0417 189.164 83.5938C188.174 81.0938 187.68 78.4635 187.68 75.7031C187.68 72.9427 188.174 70.3385 189.164 67.8906C190.154 65.3906 191.56 63.2031 193.383 61.3281C195.258 59.401 197.419 57.8906 199.867 56.7969C202.367 55.7031 205.102 55.1562 208.07 55.1562C211.039 55.1562 213.747 55.7031 216.195 56.7969C218.695 57.8906 220.857 59.401 222.68 61.3281C224.555 63.2031 225.987 65.3906 226.977 67.8906C227.966 70.3385 228.461 72.9427 228.461 75.7031C228.461 78.4635 227.966 81.0938 226.977 83.5938C225.987 86.0417 224.555 88.2292 222.68 90.1562C220.857 92.0312 218.695 93.5156 216.195 94.6094C213.747 95.651 211.039 96.1719 208.07 96.1719ZM208.07 89.9219C210.883 89.9219 213.305 89.2708 215.336 87.9688C217.419 86.6146 219.008 84.8698 220.102 82.7344C221.247 80.5469 221.82 78.2031 221.82 75.7031C221.82 73.151 221.247 70.8073 220.102 68.6719C219.008 66.4844 217.419 64.7396 215.336 63.4375C213.305 62.0833 210.883 61.4062 208.07 61.4062C205.31 61.4062 202.888 62.0833 200.805 63.4375C198.721 64.7396 197.107 66.4844 195.961 68.6719C194.867 70.8073 194.32 73.151 194.32 75.7031C194.32 78.2031 194.867 80.5469 195.961 82.7344C197.107 84.8698 198.721 86.6146 200.805 87.9688C202.888 89.2708 205.31 89.9219 208.07 89.9219ZM245.105 96.1719C243.594 96.1719 242.006 95.9635 240.339 95.5469C238.724 95.1823 237.266 94.7396 235.964 94.2188C234.662 93.6458 233.698 93.151 233.073 92.7344V85.8594C233.803 86.3802 234.818 86.9792 236.12 87.6562C237.474 88.2812 238.907 88.8281 240.417 89.2969C241.928 89.7135 243.334 89.9219 244.636 89.9219C247.084 89.9219 249.011 89.375 250.417 88.2812C251.876 87.1875 252.605 85.8333 252.605 84.2188C252.605 82.9688 252.11 81.9792 251.12 81.25C250.183 80.5208 248.803 79.8177 246.98 79.1406L241.198 77.0312C238.178 75.8854 236.172 74.4531 235.183 72.7344C234.193 70.9635 233.698 68.9583 233.698 66.7188C233.698 64.4792 234.245 62.5 235.339 60.7812C236.485 59.0625 238.099 57.7083 240.183 56.7188C242.266 55.6771 244.688 55.1562 247.448 55.1562C249.74 55.1562 251.876 55.4948 253.855 56.1719C255.834 56.7969 257.266 57.4479 258.152 58.125V65C257.058 64.1667 255.573 63.3594 253.698 62.5781C251.823 61.7969 249.896 61.4062 247.917 61.4062C245.469 61.4062 243.62 61.9792 242.37 63.125C241.172 64.2708 240.573 65.4688 240.573 66.7188C240.573 67.7083 240.912 68.724 241.589 69.7656C242.318 70.7552 243.568 71.5625 245.339 72.1875L251.902 74.5312C254.454 75.4167 256.355 76.6927 257.605 78.3594C258.855 80.026 259.48 81.9792 259.48 84.2188C259.48 86.4062 258.855 88.4115 257.605 90.2344C256.407 92.0573 254.714 93.5156 252.527 94.6094C250.391 95.651 247.917 96.1719 245.105 96.1719ZM272.295 47.8125C270.785 47.8125 269.509 47.2656 268.467 46.1719C267.478 45.0781 266.983 43.8542 266.983 42.5C266.983 41.0938 267.478 39.8698 268.467 38.8281C269.509 37.7344 270.785 37.1875 272.295 37.1875C273.285 37.1875 274.17 37.4479 274.952 37.9688C275.785 38.4375 276.436 39.0885 276.905 39.9219C277.373 40.7031 277.608 41.5625 277.608 42.5C277.608 43.3854 277.373 44.2448 276.905 45.0781C276.436 45.9115 275.785 46.5885 274.952 47.1094C274.17 47.5781 273.285 47.8125 272.295 47.8125ZM269.873 95V55.9375H276.28V95H269.873ZM263.702 61.9531V55.9375H276.28V61.9531H263.702ZM302.064 96.1719C299.877 96.1719 297.976 95.7292 296.361 94.8438C294.746 93.9062 293.496 92.6042 292.611 90.9375C291.726 89.2708 291.283 87.3438 291.283 85.1562V61.9531H283.783V60.0781C286.335 58.9323 288.47 57.0573 290.189 54.4531C291.908 51.7969 293.418 48.5417 294.72 44.6875H297.689V55.9375H310.267V61.9531H297.689V84.8438C297.689 86.4583 298.21 87.7344 299.252 88.6719C300.345 89.6094 301.752 90.0781 303.47 90.0781C305.033 90.0781 306.439 89.8958 307.689 89.5312C308.991 89.1146 310.033 88.6719 310.814 88.2031V93.8281C309.772 94.6615 308.548 95.2604 307.142 95.625C305.736 95.9896 304.043 96.1719 302.064 96.1719ZM319.567 113.75L333.552 87.4219L348.083 55.9375H355.739L326.989 113.75H319.567ZM330.973 93.125L313.473 55.9375H321.13L336.598 88.4375L330.973 93.125Z" fill="url(#paint1_linear_0_763)"/>
<defs>
<linearGradient id="paint0_linear_0_763" x1="58.9696" y1="-35.7" x2="264.529" y2="328.108" gradientUnits="userSpaceOnUse">
<stop stop-color="white"/>
<stop offset="1" stop-color="#D2E1FF"/>
</linearGradient>
<linearGradient id="paint1_linear_0_763" x1="84.3664" y1="46.9268" x2="127.372" y2="169.242" gradientUnits="userSpaceOnUse">
<stop stop-color="#A299FA"/>
<stop offset="0.293253" stop-color="#3A93F8"/>
<stop offset="0.508253" stop-color="#7DB4F3"/>
<stop offset="0.788253" stop-color="#0B3EAA"/>
</linearGradient>
</defs>
</svg>
