<svg width="491" height="405" viewBox="0 0 491 405" fill="none" xmlns="http://www.w3.org/2000/svg">
<path d="M538.153 26.0073L0 336.71V343.84L65.1605 306.221V313.252L75.454 307.309V683.322L86.2599 677.084V327.712C86.2599 317.046 93.7494 304.076 102.986 298.744C112.223 293.41 119.712 297.735 119.712 308.401V657.773L130.518 651.534V275.519L140.812 269.576V262.545L219.551 217.087V224.118L229.844 218.175V617.038L240.65 610.8V238.578C240.65 227.912 248.139 214.942 257.376 209.61C266.613 204.276 274.102 208.601 274.102 219.267V591.489L284.908 585.25V186.384L295.202 180.442V173.411L373.941 127.95V134.98L384.234 129.038V657.21L395.04 650.971V149.44C395.04 138.775 402.529 125.804 411.766 120.473C421.003 115.141 428.492 119.464 428.492 130.13V631.66L439.298 625.422V97.2503L449.592 91.3079V84.2768L538.159 33.1434V26.0073H538.153Z" fill="#786FE3"/>
<path d="M583.587 52.0142L45.4336 362.717V369.847L110.594 332.228V339.259L120.888 333.316V689L131.694 682.761V353.719C131.694 343.053 139.183 330.082 148.42 324.751C157.657 319.417 165.146 323.742 165.146 334.408V663.447L175.952 657.209V301.525L186.245 295.583V288.552L264.984 243.094V250.125L275.278 244.182V657.209L286.084 650.97V264.581C286.084 253.916 293.573 240.945 302.81 235.614C312.047 230.282 319.536 234.605 319.536 245.271V631.657L330.342 625.418V212.388L340.635 206.446V199.415L419.374 153.956V160.987L429.668 155.045V641.313L440.474 635.075V175.447C440.474 164.781 447.963 151.811 457.2 146.48C466.437 141.145 473.926 145.471 473.926 156.137V615.764L484.732 609.526V123.254L495.026 117.311V110.281L583.593 59.147V52.0142H583.587Z" fill="#A29AF2"/>
<path d="M583.328 0L538.153 25.7879L0 336.71L45.4265 362.718L583.58 52.015V4.26829C583.58 2.86463 583.478 1.43549 583.328 0Z" fill="#E8E7FF"/>
<path d="M355.984 158.578C373.296 158.578 387.33 144.544 387.33 127.232C387.33 109.919 373.296 95.8848 355.984 95.8848C338.671 95.8848 324.637 109.919 324.637 127.232C324.637 144.544 338.671 158.578 355.984 158.578Z" fill="url(#paint0_radial_0_850)"/>
<ellipse cx="355.986" cy="158.323" rx="29.257" ry="9.14281" fill="url(#paint1_radial_0_850)"/>
<defs>
<radialGradient id="paint0_radial_0_850" cx="0" cy="0" r="1" gradientUnits="userSpaceOnUse" gradientTransform="translate(335.935 116.152) scale(44.8613 44.8613)">
<stop stop-color="#A9C4FF"/>
<stop offset="0.198" stop-color="#A6C2FF"/>
<stop offset="0.4921" stop-color="#8CB1FF"/>
<stop offset="0.8443" stop-color="#4679E6"/>
<stop offset="1" stop-color="#3970E6"/>
</radialGradient>
<radialGradient id="paint1_radial_0_850" cx="0" cy="0" r="1" gradientUnits="userSpaceOnUse" gradientTransform="translate(355.986 158.323) rotate(90) scale(9.14281 29.257)">
<stop stop-color="#6E65EB"/>
<stop offset="1" stop-color="#6E65EB" stop-opacity="0"/>
</radialGradient>
</defs>
</svg>
