<svg width="275" height="388" viewBox="0 0 275 388" fill="none" xmlns="http://www.w3.org/2000/svg">
<g opacity="0.2">
<path d="M-3.56635 212.545L21.891 197.848L-3.56523 183.151L-29.0215 197.849L-3.56635 212.545Z" fill="url(#paint0_radial_0_617)"/>
<path d="M-3.56656 404.055V212.545L21.8897 197.849V404.055H-3.56656Z" fill="url(#paint1_linear_0_617)"/>
</g>
<path d="M213.385 254.122V232.757L245.363 214.295C278.01 195.447 278.008 164.778 245.362 145.929L-4.70508 -39.3507L13.7962 -50.0325L263.863 135.247C306.713 159.986 306.714 200.238 263.866 224.977L213.385 254.122Z" fill="#F8F8FF"/>
<path d="M141.392 207.172L69.3965 165.606L141.39 124.04L213.385 165.607L141.392 207.172Z" fill="url(#paint2_radial_0_617)"/>
<path d="M141.393 413.993V207.172L213.387 165.607V413.993H141.393Z" fill="#C7C3FE"/>
<path d="M141.391 413.993V207.172L69.3965 165.607V413.993H141.391Z" fill="#C7C3FE"/>
<path d="M140.93 481.316L142.352 207.76L213.385 165.607L141.391 206.018L69.3965 165.607L140.38 207.714L140.93 481.316Z" fill="url(#paint3_linear_0_617)"/>
<path d="M213.164 254.189V259.166V430.047L216.961 427.855V266.336C216.961 262.588 219.593 258.03 222.839 256.156C226.085 254.282 228.717 255.802 228.717 259.55V421.069L232.514 418.876V247.994L236.132 245.906V243.435L267.255 225.466V222.961L213.164 254.189Z" fill="#A29AF2"/>
<path d="M110.381 311.882L94.418 302.665V285.886C94.418 280.417 97.7433 277.902 101.846 280.271L102.954 280.911C107.057 283.28 110.383 289.633 110.383 295.103V311.882H110.381Z" fill="#8278E1"/>
<path d="M94.4166 302.742L-94.6973 411.927V414.433L-71.7991 401.213V403.684L-68.1818 401.595V533.731L-64.3844 531.539V408.765C-64.3844 405.017 -61.7526 400.459 -58.5066 398.585C-55.2607 396.711 -52.6288 398.231 -52.6288 401.979V524.753L-48.8315 522.56V390.424L-45.2142 388.335V385.865L-17.5444 369.89V372.361L-13.9272 370.272V510.438L-10.1298 508.246V377.442C-10.1298 373.694 -7.49795 369.136 -4.25202 367.263C-1.00609 365.388 1.62578 366.908 1.62578 370.656V501.46L5.42316 499.267V359.101L9.04041 357.012V354.542L36.7102 338.566V341.037L40.3275 338.948V524.555L44.1248 522.362V346.118C44.1248 342.37 46.7567 337.812 50.0026 335.939C53.2486 334.065 55.8804 335.584 55.8804 339.332V515.576L59.6778 513.384V327.778L63.295 325.69V323.219L94.4188 305.25V302.742H94.4166Z" fill="url(#paint4_linear_0_617)"/>
<path d="M110.382 311.882L-78.7322 421.066V423.572L-55.834 410.352V412.823L-52.2167 410.735V535.726L-48.4194 533.534V417.904C-48.4194 414.156 -45.7875 409.598 -42.5416 407.725C-39.2957 405.85 -36.6638 407.37 -36.6638 411.118V526.747L-32.8665 524.555V399.563L-29.2492 397.475V395.004L-1.5794 379.029V381.5L2.03789 379.412V524.555L5.83526 522.362V386.58C5.83526 382.832 8.46709 378.274 11.713 376.401C14.959 374.527 17.5908 376.046 17.5908 379.794V515.575L21.3882 513.383V368.239L25.0054 366.151V363.68L52.6752 347.705V350.176L56.2925 348.088V518.969L60.0899 516.777V355.258C60.0899 351.509 62.7217 346.951 65.9677 345.078C69.2136 343.203 71.8455 344.723 71.8455 348.472V509.991L75.6428 507.798V336.916L79.2601 334.828V332.357L110.384 314.388V311.882H110.382Z" fill="#A29AF2"/>
<path d="M110.292 293.603L94.4166 302.665L-94.6973 411.927L-78.7338 421.066L110.38 311.882V295.103C110.38 294.609 110.344 294.107 110.292 293.603Z" fill="#E8E7FF"/>
<path d="M-3.39998 353.846L-3.90332 212.753L-29.0195 197.849L-3.56327 212.137L21.893 197.849L-3.20534 212.738L-3.39998 353.846Z" fill="url(#paint5_linear_0_617)"/>
<path d="M202.555 315.848L228.012 301.151L202.556 286.453L177.1 301.151L202.555 315.848Z" fill="url(#paint6_radial_0_617)"/>
<path d="M202.556 507.358V315.848L177.1 301.151V507.358H202.556Z" fill="#A299FA"/>
<path d="M202.555 507.358V315.848L228.011 301.151V507.358H202.555Z" fill="#A299FA"/>
<path d="M202.721 507.358L202.218 316.056L177.102 301.151L202.558 315.44L228.014 301.151L202.915 316.04L202.721 507.358Z" fill="url(#paint7_linear_0_617)"/>
<ellipse cx="142.428" cy="170.312" rx="26.8443" ry="8.38885" fill="url(#paint8_radial_0_617)"/>
<path d="M140.674 170.931C160.748 170.931 177.021 154.658 177.021 134.585C177.021 114.512 160.748 98.2389 140.674 98.2389C120.601 98.2389 104.328 114.512 104.328 134.585C104.328 154.658 120.601 170.931 140.674 170.931Z" fill="url(#paint9_radial_0_617)"/>
<defs>
<radialGradient id="paint0_radial_0_617" cx="0" cy="0" r="1" gradientUnits="userSpaceOnUse" gradientTransform="translate(-4.25434 160.876) rotate(180) scale(48.0728 48.0728)">
<stop stop-color="#F3F3FF"/>
<stop offset="1" stop-color="#CECEEF"/>
</radialGradient>
<linearGradient id="paint1_linear_0_617" x1="56.9883" y1="383.791" x2="-32.3017" y2="229.136" gradientUnits="userSpaceOnUse">
<stop stop-color="#A299FA"/>
<stop offset="0.401" stop-color="#6962B3"/>
<stop offset="0.7967" stop-color="#A299FA"/>
<stop offset="1" stop-color="#BCB6FA"/>
</linearGradient>
<radialGradient id="paint2_radial_0_617" cx="0" cy="0" r="1" gradientUnits="userSpaceOnUse" gradientTransform="translate(143.339 61.0397) scale(135.958 135.958)">
<stop stop-color="#F3F3FF"/>
<stop offset="1" stop-color="#D9D7FF"/>
</radialGradient>
<linearGradient id="paint3_linear_0_617" x1="141.391" y1="481.316" x2="141.391" y2="165.607" gradientUnits="userSpaceOnUse">
<stop stop-color="#161242"/>
<stop offset="0.3314" stop-color="#6D6A88"/>
<stop offset="0.6575" stop-color="#BBBAC8"/>
<stop offset="0.887" stop-color="#ECECF0"/>
<stop offset="1" stop-color="white"/>
</linearGradient>
<linearGradient id="paint4_linear_0_617" x1="-17.1138" y1="460.507" x2="-51.1706" y2="347.682" gradientUnits="userSpaceOnUse">
<stop stop-color="#161242"/>
<stop offset="0.2001" stop-color="#181546"/>
<stop offset="0.3978" stop-color="#201D52"/>
<stop offset="0.5946" stop-color="#2C2A66"/>
<stop offset="0.7909" stop-color="#3E3C81"/>
<stop offset="0.9853" stop-color="#5454A5"/>
<stop offset="1" stop-color="#5656A8"/>
</linearGradient>
<linearGradient id="paint5_linear_0_617" x1="-3.5635" y1="353.846" x2="-3.5635" y2="197.849" gradientUnits="userSpaceOnUse">
<stop stop-color="#3A70E6"/>
<stop offset="0.3314" stop-color="#628FF2"/>
<stop offset="0.6575" stop-color="#E3E7F1"/>
<stop offset="0.887" stop-color="#ECECF0"/>
<stop offset="1" stop-color="white"/>
</linearGradient>
<radialGradient id="paint6_radial_0_617" cx="0" cy="0" r="1" gradientUnits="userSpaceOnUse" gradientTransform="translate(201.867 264.178) rotate(180) scale(48.0728 48.0728)">
<stop stop-color="#F3F3FF"/>
<stop offset="0.88" stop-color="#DDDBFF"/>
</radialGradient>
<linearGradient id="paint7_linear_0_617" x1="202.557" y1="507.357" x2="202.557" y2="301.151" gradientUnits="userSpaceOnUse">
<stop stop-color="#161242"/>
<stop offset="0.3314" stop-color="#6D6A88"/>
<stop offset="0.6575" stop-color="#BBBAC8"/>
<stop offset="0.887" stop-color="#ECECF0"/>
<stop offset="1" stop-color="white"/>
</linearGradient>
<radialGradient id="paint8_radial_0_617" cx="0" cy="0" r="1" gradientUnits="userSpaceOnUse" gradientTransform="translate(142.428 170.312) rotate(90) scale(8.38885 26.8443)">
<stop stop-color="#6E65EB"/>
<stop offset="1" stop-color="#6E65EB" stop-opacity="0"/>
</radialGradient>
<radialGradient id="paint9_radial_0_617" cx="0" cy="0" r="1" gradientUnits="userSpaceOnUse" gradientTransform="translate(117.428 121.738) scale(52.0159 52.0159)">
<stop stop-color="#A9C4FF"/>
<stop offset="0.198" stop-color="#A6C2FF"/>
<stop offset="0.4921" stop-color="#8CB1FF"/>
<stop offset="0.8443" stop-color="#4679E6"/>
<stop offset="1" stop-color="#3970E6"/>
</radialGradient>
</defs>
</svg>
