<svg width="275" height="388" viewBox="0 0 275 388" fill="none" xmlns="http://www.w3.org/2000/svg">
<g clip-path="url(#clip0_0_653)">
<rect width="275" height="388" rx="24" fill="#EFF0FF"/>
<mask id="mask0_0_653" style="mask-type:luminance" maskUnits="userSpaceOnUse" x="-355" y="15" width="711" height="476">
<path d="M355.921 15H-355V490.147H355.921V15Z" fill="white"/>
</mask>
<g mask="url(#mask0_0_653)">
<path style="mix-blend-mode:multiply" d="M371.802 432.059L372.437 98.6383L302.406 108.512L302.321 151.589L232.281 161.453L232.205 204.53L162.165 214.394L162.08 257.489L92.0779 267.354L92.002 310.43L21.9621 320.294L21.7441 432.059H371.802Z" fill="#ADA6EB" fill-opacity="0.5"/>
<path d="M302.334 155.615L212.844 106.808L212.929 63.7308L302.42 112.538L302.334 155.615Z" fill="url(#paint0_linear_0_653)"/>
<path d="M302.411 112.538L212.92 63.7309L282.95 53.8573L372.441 102.664L302.411 112.538Z" fill="url(#paint1_linear_0_653)"/>
<path d="M232.215 208.556L142.725 159.748L142.8 116.672L232.291 165.479L232.215 208.556Z" fill="url(#paint2_linear_0_653)"/>
<path d="M232.292 165.479L142.801 116.672L212.841 106.808L302.332 155.615L232.292 165.479Z" fill="url(#paint3_linear_0_653)"/>
<path d="M162.12 261.506L72.6288 212.699L72.7047 169.622L162.205 218.429L162.12 261.506Z" fill="url(#paint4_linear_0_653)"/>
<path d="M162.205 218.429L72.705 169.622L142.745 159.758L232.236 208.565L162.205 218.429Z" fill="url(#paint5_linear_0_653)"/>
<path d="M162.205 218.429L72.705 169.622L142.745 159.758L232.236 208.565L162.205 218.429Z" fill="url(#paint6_linear_0_653)"/>
<path d="M92.0005 314.457L2.5097 265.649L2.58555 222.573L92.0763 271.38L92.0005 314.457Z" fill="url(#paint7_linear_0_653)"/>
<path d="M92.0768 271.38L2.58606 222.573L72.626 212.699L162.117 261.506L92.0768 271.38Z" fill="url(#paint8_linear_0_653)"/>
<path d="M21.4887 574.03L-68.002 525.222L-67.5281 275.514L21.9722 324.321L21.4887 574.03Z" fill="#BFCDD6"/>
<path d="M132.287 370.277L260.007 439.934L193.36 449.323L65.6407 379.666L132.287 370.277Z" fill="url(#paint9_linear_0_653)"/>
<path d="M-0.845711 307.083L126.874 376.739L60.2271 386.128L-67.4922 316.471L-0.845711 307.083Z" fill="url(#paint10_linear_0_653)"/>
<path d="M-6.32816 354.531L60.2994 345.142L60.2235 386.128L126.87 376.739L126.794 417.725L193.431 408.336L193.355 449.322L260.002 439.934L259.926 480.92L326.563 471.531L326.487 512.517L207.479 529.28L-6.7168 559.462L-6.41346 395.517L-6.32816 354.531Z" fill="url(#paint11_linear_0_653)"/>
<path style="mix-blend-mode:multiply" d="M-6.32816 355.596L60.2994 346.207L60.2235 387.194L126.87 377.805L126.794 418.791L193.431 409.402L193.355 450.388L260.002 440.999L259.926 481.985L326.563 472.596L326.487 513.583L207.479 530.346L-6.7168 560.527L-6.41346 396.582L-6.32816 355.596Z" fill="#ADA6EB" fill-opacity="0.5"/>
<path d="M-67.4177 275.485L60.3017 345.142L-6.32587 354.531L-134.055 284.874L-67.4177 275.485Z" fill="url(#paint12_linear_0_653)"/>
<path d="M21.9729 324.321L-67.5273 275.514L2.52206 265.65L92.0128 314.457L21.9729 324.321Z" fill="url(#paint13_linear_0_653)"/>
<path d="M369.072 393.882L230.225 318.153L230.272 289.065L369.129 364.784L369.072 393.882Z" fill="url(#paint14_linear_0_653)"/>
<path d="M369.129 364.784L230.271 289.065L277.581 282.394L416.438 358.123L369.129 364.784Z" fill="url(#paint15_linear_0_653)"/>
<path d="M321.766 400.544L182.918 324.824L230.227 318.153L369.075 393.882L321.766 400.544Z" fill="url(#paint16_linear_0_653)"/>
<path d="M321.709 429.642L182.861 353.913L182.918 324.824L321.766 400.544L321.709 429.642Z" fill="url(#paint17_linear_0_653)"/>
<path d="M274.4 436.304L135.553 360.584L182.862 353.913L321.71 429.642L274.4 436.304Z" fill="url(#paint18_linear_0_653)"/>
<path d="M274.353 465.411L135.496 389.682L135.553 360.584L274.401 436.303L274.353 465.411Z" fill="url(#paint19_linear_0_653)"/>
<path d="M513.044 315.426L512.617 548.191L126.18 602.643L84.9082 608.459L84.9651 579.351L132.275 572.69L132.312 543.592L179.622 536.93L179.679 507.832L226.988 501.171L227.045 472.073L274.354 465.411L274.402 436.303L321.711 429.642L321.768 400.544L369.078 393.882L369.134 364.784L416.444 358.123L416.501 329.025L513.044 315.426Z" fill="url(#paint20_linear_0_653)"/>
</g>
<ellipse cx="145.669" cy="185.169" rx="28.7396" ry="11.3446" fill="url(#paint21_radial_0_653)"/>
<path d="M144.914 188.951C161.204 188.951 174.41 175.406 174.41 158.698C174.41 141.991 161.204 128.446 144.914 128.446C128.624 128.446 115.418 141.991 115.418 158.698C115.418 175.406 128.624 188.951 144.914 188.951Z" fill="url(#paint22_radial_0_653)"/>
</g>
<defs>
<linearGradient id="paint0_linear_0_653" x1="244.949" y1="133.796" x2="262.631" y2="100.335" gradientUnits="userSpaceOnUse">
<stop stop-color="#A7A0F3"/>
<stop offset="1" stop-color="#D1CEFE"/>
</linearGradient>
<linearGradient id="paint1_linear_0_653" x1="212.92" y1="83.2024" x2="372.441" y2="83.2024" gradientUnits="userSpaceOnUse">
<stop stop-color="#F5F4FF"/>
<stop offset="1" stop-color="#C7C3FE"/>
</linearGradient>
<linearGradient id="paint2_linear_0_653" x1="174.826" y1="186.737" x2="192.509" y2="153.277" gradientUnits="userSpaceOnUse">
<stop stop-color="#A7A0F3"/>
<stop offset="1" stop-color="#D1CEFE"/>
</linearGradient>
<linearGradient id="paint3_linear_0_653" x1="142.801" y1="136.148" x2="302.332" y2="136.148" gradientUnits="userSpaceOnUse">
<stop stop-color="#F5F4FF"/>
<stop offset="1" stop-color="#C7C3FE"/>
</linearGradient>
<linearGradient id="paint4_linear_0_653" x1="104.734" y1="239.687" x2="122.416" y2="206.226" gradientUnits="userSpaceOnUse">
<stop stop-color="#A7A0F3"/>
<stop offset="1" stop-color="#D1CEFE"/>
</linearGradient>
<linearGradient id="paint5_linear_0_653" x1="72.705" y1="189.094" x2="232.236" y2="189.094" gradientUnits="userSpaceOnUse">
<stop stop-color="#E6F7FF"/>
<stop offset="1" stop-color="#C7E4EF"/>
</linearGradient>
<linearGradient id="paint6_linear_0_653" x1="72.705" y1="189.099" x2="232.236" y2="189.099" gradientUnits="userSpaceOnUse">
<stop stop-color="#F5F4FF"/>
<stop offset="1" stop-color="#C7C3FE"/>
</linearGradient>
<linearGradient id="paint7_linear_0_653" x1="34.6115" y1="292.638" x2="52.2942" y2="259.178" gradientUnits="userSpaceOnUse">
<stop stop-color="#A7A0F3"/>
<stop offset="1" stop-color="#D1CEFE"/>
</linearGradient>
<linearGradient id="paint8_linear_0_653" x1="2.58606" y1="242.044" x2="162.117" y2="242.044" gradientUnits="userSpaceOnUse">
<stop stop-color="#F5F4FF"/>
<stop offset="1" stop-color="#C7C3FE"/>
</linearGradient>
<linearGradient id="paint9_linear_0_653" x1="211.466" y1="440.8" x2="98.0201" y2="355.338" gradientUnits="userSpaceOnUse">
<stop stop-color="#F5F4FF"/>
<stop offset="1" stop-color="#A9A4F9"/>
</linearGradient>
<linearGradient id="paint10_linear_0_653" x1="-67.4922" y1="346.612" x2="126.874" y2="346.612" gradientUnits="userSpaceOnUse">
<stop stop-color="#F5F4FF"/>
<stop offset="1" stop-color="#A9A4F9"/>
</linearGradient>
<linearGradient id="paint11_linear_0_653" x1="43.5406" y1="365.164" x2="78.866" y2="410.568" gradientUnits="userSpaceOnUse">
<stop stop-color="#8A81E1"/>
<stop offset="1" stop-color="#A8A0F3"/>
</linearGradient>
<linearGradient id="paint12_linear_0_653" x1="-134.055" y1="315.014" x2="60.3017" y2="315.014" gradientUnits="userSpaceOnUse">
<stop stop-color="#F5F4FF"/>
<stop offset="1" stop-color="#C7C3FE"/>
</linearGradient>
<linearGradient id="paint13_linear_0_653" x1="-67.5273" y1="294.99" x2="92.0128" y2="294.99" gradientUnits="userSpaceOnUse">
<stop stop-color="#F5F4FF"/>
<stop offset="1" stop-color="#C7C3FE"/>
</linearGradient>
<linearGradient id="paint14_linear_0_653" x1="280.01" y1="368.992" x2="296.5" y2="326.573" gradientUnits="userSpaceOnUse">
<stop stop-color="#A7A0F3"/>
<stop offset="1" stop-color="#D1CEFE"/>
</linearGradient>
<linearGradient id="paint15_linear_0_653" x1="230.271" y1="323.596" x2="416.438" y2="323.596" gradientUnits="userSpaceOnUse">
<stop stop-color="#F5F4FF"/>
<stop offset="1" stop-color="#C7C3FE"/>
</linearGradient>
<linearGradient id="paint16_linear_0_653" x1="182.918" y1="359.355" x2="369.075" y2="359.355" gradientUnits="userSpaceOnUse">
<stop stop-color="#F5F4FF"/>
<stop offset="1" stop-color="#C7C3FE"/>
</linearGradient>
<linearGradient id="paint17_linear_0_653" x1="232.646" y1="404.752" x2="249.136" y2="362.333" gradientUnits="userSpaceOnUse">
<stop stop-color="#A7A0F3"/>
<stop offset="1" stop-color="#D1CEFE"/>
</linearGradient>
<linearGradient id="paint18_linear_0_653" x1="135.553" y1="395.115" x2="321.71" y2="395.115" gradientUnits="userSpaceOnUse">
<stop stop-color="#F5F4FF"/>
<stop offset="1" stop-color="#C7C3FE"/>
</linearGradient>
<linearGradient id="paint19_linear_0_653" x1="185.281" y1="440.519" x2="201.774" y2="398.097" gradientUnits="userSpaceOnUse">
<stop stop-color="#A7A0F3"/>
<stop offset="1" stop-color="#D1CEFE"/>
</linearGradient>
<linearGradient id="paint20_linear_0_653" x1="318.593" y1="501.912" x2="297.511" y2="459.181" gradientUnits="userSpaceOnUse">
<stop stop-color="#5E7B9E"/>
<stop offset="1" stop-color="#334F77"/>
</linearGradient>
<radialGradient id="paint21_radial_0_653" cx="0" cy="0" r="1" gradientUnits="userSpaceOnUse" gradientTransform="translate(145.669 185.169) rotate(90) scale(11.3446 28.7396)">
<stop stop-color="#6E65EB"/>
<stop offset="1" stop-color="#6E65EB" stop-opacity="0"/>
</radialGradient>
<radialGradient id="paint22_radial_0_653" cx="0" cy="0" r="1" gradientUnits="userSpaceOnUse" gradientTransform="translate(126.049 148.006) scale(42.2124 43.2948)">
<stop stop-color="#A9C4FF"/>
<stop offset="0.198" stop-color="#A6C2FF"/>
<stop offset="0.4921" stop-color="#8CB1FF"/>
<stop offset="0.8443" stop-color="#4679E6"/>
<stop offset="1" stop-color="#3970E6"/>
</radialGradient>
<clipPath id="clip0_0_653">
<rect width="275" height="388" rx="24" fill="white"/>
</clipPath>
</defs>
</svg>
