<svg width="334" height="175" viewBox="0 0 334 175" fill="none" xmlns="http://www.w3.org/2000/svg">
<g style="mix-blend-mode:multiply">
<path d="M51.8998 142.997C67.4787 141.428 85.1071 140.291 103.664 139.523C122.125 138.77 141.611 138.418 161.065 138.434C180.518 138.45 200.052 138.866 218.609 139.651C237.262 140.452 255.035 141.636 270.806 143.222C286.769 144.839 299.242 146.712 308.128 148.745C317.142 150.811 322.49 153.036 323.963 155.294C325.468 157.584 322.97 159.921 316.31 162.131C309.537 164.388 298.473 166.534 282.942 168.407C267.219 170.313 248.502 171.738 228.136 172.698C207.641 173.659 185.61 174.139 163.482 174.107C141.339 174.091 119.243 173.563 98.6046 172.57C78.0942 171.577 59.1529 170.104 43.1416 168.167C27.3385 166.262 15.9545 164.084 8.8615 161.827C1.88059 159.585 -0.92137 157.247 0.263463 154.958C1.43228 152.7 6.47582 150.491 15.234 148.441C23.864 146.424 36.1126 144.566 51.8677 142.997H51.8998Z" fill="url(#paint0_linear_0_1125)"/>
</g>
<path d="M121.612 92.3375C133.717 91.1206 147.423 90.224 161.849 89.6476C176.195 89.0712 191.341 88.783 206.456 88.799C221.571 88.815 236.765 89.1352 251.176 89.7436C265.666 90.3681 279.483 91.2807 291.748 92.5296C304.157 93.7785 313.86 95.2515 320.76 96.8206C327.773 98.4218 331.92 100.151 333.057 101.896C334.226 103.673 332.289 105.483 327.117 107.212C321.849 108.973 313.251 110.638 301.195 112.095C288.978 113.568 274.424 114.689 258.605 115.426C242.674 116.178 225.558 116.546 208.361 116.53C191.149 116.514 173.985 116.114 157.942 115.33C141.995 114.561 127.28 113.408 114.84 111.903C102.559 110.414 93.7208 108.733 88.1969 106.972C82.7691 105.227 80.5916 103.417 81.5203 101.64C82.4329 99.8948 86.3556 98.1656 93.1604 96.5805C99.8691 95.0114 109.38 93.5704 121.628 92.3375H121.612Z" fill="url(#paint1_linear_0_1125)"/>
<path d="M333.379 102.905C333.218 119.877 333.042 136.849 332.866 153.837C332.866 154.83 332.21 155.822 330.913 156.815C329.616 157.808 327.646 158.784 325.021 159.745C322.363 160.706 319.032 161.65 315.014 162.563C310.963 163.476 306.207 164.34 300.764 165.157C288.579 166.982 274.089 168.359 258.318 169.288C242.435 170.216 225.383 170.681 208.234 170.665C191.086 170.665 173.97 170.168 157.991 169.208C142.108 168.263 127.442 166.854 115.033 165.013C109.349 164.164 104.418 163.268 100.191 162.323C95.9956 161.394 92.5371 160.418 89.7672 159.425C87.0293 158.432 84.9798 157.423 83.6189 156.415C82.2739 155.406 81.6014 154.381 81.6014 153.357L81.2812 102.425C81.2812 103.257 81.9537 104.074 83.2986 104.907C84.6596 105.739 86.709 106.556 89.463 107.356C92.2329 108.157 95.7074 108.957 99.9183 109.71C104.145 110.478 109.109 111.199 114.809 111.887C127.25 113.393 141.964 114.529 157.911 115.314C173.954 116.098 191.134 116.499 208.331 116.515C225.527 116.531 242.643 116.162 258.574 115.41C274.393 114.673 288.947 113.553 301.164 112.08C306.64 111.423 311.395 110.719 315.462 109.982C319.497 109.246 322.843 108.493 325.501 107.709C328.143 106.924 330.112 106.139 331.409 105.323C332.706 104.522 333.347 103.722 333.363 102.905H333.379Z" fill="url(#paint2_linear_0_1125)"/>
<g filter="url(#filter0_f_0_1125)">
<path d="M263.886 99.2697C263.886 102.798 237.368 105.674 204.644 105.674C171.92 105.674 145.402 102.813 145.402 99.2697C145.402 95.7265 171.92 92.8652 204.644 92.8652C237.368 92.8652 263.886 95.7265 263.886 99.2697Z" fill="#A6C2FF" fill-opacity="0.5"/>
</g>
<path d="M232.296 100.647C260.089 100.647 282.619 78.1162 282.619 50.3234C282.619 22.5306 260.089 0 232.296 0C204.503 0 181.973 22.5306 181.973 50.3234C181.973 78.1162 204.503 100.647 232.296 100.647Z" fill="url(#paint3_radial_0_1125)"/>
<path d="M228.403 56.4695C228.257 55.9016 227.961 55.3834 227.546 54.9688C227.132 54.5541 226.613 54.2581 226.046 54.1116L215.979 51.5159C215.807 51.4671 215.656 51.3637 215.549 51.2213C215.441 51.0788 215.383 50.9052 215.383 50.7266C215.383 50.5481 215.441 50.3745 215.549 50.232C215.656 50.0896 215.807 49.9862 215.979 49.9374L226.046 47.34C226.613 47.1937 227.131 46.8979 227.546 46.4836C227.961 46.0692 228.257 45.5513 228.403 44.9838L230.999 34.9174C231.047 34.745 231.151 34.5931 231.293 34.4849C231.436 34.3767 231.61 34.3181 231.789 34.3181C231.968 34.3181 232.142 34.3767 232.285 34.4849C232.428 34.5931 232.531 34.745 232.579 34.9174L235.173 44.9838C235.32 45.5516 235.616 46.0698 236.031 46.4845C236.445 46.8992 236.963 47.1952 237.531 47.3416L247.598 49.9358C247.771 49.9835 247.923 50.0867 248.032 50.2296C248.141 50.3725 248.2 50.5471 248.2 50.7266C248.2 50.9062 248.141 51.0808 248.032 51.2237C247.923 51.3665 247.771 51.4698 247.598 51.5175L237.531 54.1116C236.963 54.2581 236.445 54.5541 236.031 54.9688C235.616 55.3834 235.32 55.9016 235.173 56.4695L232.578 66.5359C232.529 66.7083 232.426 66.8602 232.283 66.9684C232.141 67.0766 231.967 67.1352 231.788 67.1352C231.609 67.1352 231.434 67.0766 231.292 66.9684C231.149 66.8602 231.046 66.7083 230.998 66.5359L228.403 56.4695Z" fill="white"/>
<defs>
<filter id="filter0_f_0_1125" x="139.158" y="86.6208" width="130.972" height="25.2979" filterUnits="userSpaceOnUse" color-interpolation-filters="sRGB">
<feFlood flood-opacity="0" result="BackgroundImageFix"/>
<feBlend mode="normal" in="SourceGraphic" in2="BackgroundImageFix" result="shape"/>
<feGaussianBlur stdDeviation="3.1222" result="effect1_foregroundBlur_0_1125"/>
</filter>
<linearGradient id="paint0_linear_0_1125" x1="150.513" y1="199.853" x2="173.874" y2="112.688" gradientUnits="userSpaceOnUse">
<stop stop-color="#BFE0FD" stop-opacity="0"/>
<stop offset="0.03" stop-color="#B9DBFA" stop-opacity="0.06"/>
<stop offset="0.27" stop-color="#8BB4E0" stop-opacity="0.56"/>
<stop offset="0.44" stop-color="#6E9BD1" stop-opacity="0.88"/>
<stop offset="0.52" stop-color="#6392CB"/>
<stop offset="1" stop-color="#3870B5"/>
</linearGradient>
<linearGradient id="paint1_linear_0_1125" x1="81.2961" y1="102.649" x2="333.377" y2="102.649" gradientUnits="userSpaceOnUse">
<stop stop-color="#D6EAFF"/>
<stop offset="1" stop-color="white"/>
</linearGradient>
<linearGradient id="paint2_linear_0_1125" x1="81.2973" y1="136.545" x2="333.378" y2="136.545" gradientUnits="userSpaceOnUse">
<stop stop-color="#97BDEE"/>
<stop offset="0.29" stop-color="#B9D4F5"/>
<stop offset="0.52" stop-color="#D6EAFF"/>
<stop offset="0.75" stop-color="#ECF9FF"/>
<stop offset="1" stop-color="#D6EAFF"/>
</linearGradient>
<radialGradient id="paint3_radial_0_1125" cx="0" cy="0" r="1" gradientUnits="userSpaceOnUse" gradientTransform="translate(200.11 32.5362) scale(72.0192)">
<stop stop-color="#A9C4FF"/>
<stop offset="0.198" stop-color="#A6C2FF"/>
<stop offset="0.4921" stop-color="#8CB1FF"/>
<stop offset="0.8443" stop-color="#4679E6"/>
<stop offset="1" stop-color="#3970E6"/>
</radialGradient>
</defs>
</svg>
