<svg width="705" height="800" viewBox="0 0 705 800" fill="none" xmlns="http://www.w3.org/2000/svg">
<g opacity="0.5" clip-path="url(#clip0_0_938)">
<path d="M501.44 781.817C502.613 757.877 530.586 749.964 548.954 746.914C562.391 744.972 580.202 745.611 593.946 745.532C639.876 745.1 790.315 747.368 835.098 741.077C900.881 735.552 1019.42 690.048 920.047 623.189C842.086 576.983 747.261 565.526 659.048 564.489C575.512 564.357 372.701 564.783 289.457 564.321C282.842 564.031 257.309 561.771 262.952 552.851C266.012 549.534 269.345 548.553 274.568 546.833C283.219 544.322 293.674 543.012 303.166 542.707C353.121 541.831 406.861 540.119 452.167 521.756C458.73 518.287 465.643 512.989 465.643 498.847V-75.3212H451.948V498.627C451.948 514.106 444.708 516.952 438.577 520.076C397.287 536.326 348.66 537.686 303.441 538.415C285.238 539.665 259.285 540.841 245.357 552.778C235.756 565.822 275.153 569.477 283.262 569.677C364.905 570.354 568.298 569.719 650.354 569.929C733.853 569.954 824.622 578.841 898.049 623.921C982.3 683.925 872.272 721.949 817.082 726.296C769.505 732.322 617.423 729.322 569.012 730.025C537.093 729.205 471.749 737.164 466.439 780.373C466.235 781.753 466.411 783.742 466.403 785.139C466.694 789.143 467.128 794.888 467.593 801H503.975C502.869 793.855 501.882 786.958 501.44 781.817Z" fill="white"/>
<path d="M444.446 779.467C451.282 740.181 496.939 727.976 528.845 722.895C557.164 719.259 690.754 721.28 719.517 720.785C747.648 720.851 779.167 721.121 806.34 717.487C840.807 712.477 918.112 699.803 909.175 653.9C882.237 590.195 725.826 572.392 666.763 573.489C577.1 573.233 368.57 574.019 279.207 573.182C268.55 572.862 222.24 568.386 234.249 552.733C239.973 547.215 246.081 545.377 255.206 542.54C269.905 538.436 287.579 536.299 303.609 535.788C345.891 535.135 391.339 534.018 430.109 519.029C436.006 515.986 443.314 511.314 443.314 502.627C443.314 502.431 443.298 502.235 443.298 502.038V-75.3212H429.603C429.603 -75.3212 429.603 499.637 429.603 500.555C429.603 502.299 429.526 504.702 429.483 505.977C429.476 506.68 429.268 507.574 428.994 508.221C415.669 528.451 341.251 531.211 316.595 531.565C292.669 531.482 266.118 533.89 243.696 539.989C231.935 543.142 201.168 553.52 218.993 567.045C236.219 577.299 262.657 578.71 284.458 579.31C366.525 579.376 572.446 579.324 654.915 579.339C723.508 579.068 803.224 586.13 861.925 625.125C908.307 659.469 867 688.79 825.186 698.027C774.386 711.192 609.098 705.984 554.787 707.022C507.306 707.523 424.481 719.45 409.799 778.037C409.31 780.061 409.111 783.015 408.901 785.099C408.661 789.114 408.388 794.873 408.109 801H444.577C444.398 794.891 444.234 789.154 444.142 785.123C444.213 783.399 444.145 781.158 444.446 779.467Z" fill="white"/>
<path d="M550.011 698.812C601.777 697.581 763.168 703.004 812.005 690.916C888.292 672.539 876.39 629.868 810.986 606.013C763.41 587.947 707.788 582.161 656.776 583.175C571.645 583.127 363.766 583.297 279.05 583.098C194.055 582.365 163.919 547.875 268.474 532.186C286.037 529.737 304.995 529 323.017 529.021C344.918 528.329 407.588 525.734 420.017 508.067C420.303 507.497 420.955 505.691 420.955 502.342C420.955 498.993 420.955 -75.3214 420.955 -75.3214H407.26C407.26 -75.3214 407.26 499.716 407.26 500.555C407.26 503.808 406.644 506.503 405.829 507.82C399.794 516.208 383.515 518.449 373.124 520.772C353.796 524.421 329.993 525.389 309.476 525.356C281.796 525.88 251.276 529.19 225.476 535.949C210.564 539.836 166.833 553.452 188.81 572.104C211.136 586.598 246.67 588.39 275.795 589.432C362.243 589.57 572.966 589.445 659.835 589.485C704.549 588.526 753.619 593.205 795.167 609.531C851.242 631.18 854.752 665.734 792.115 680.184C747.241 690.443 592.603 685.148 545.576 686.473C481.098 687.737 377.782 703.228 352.781 778.789C351.413 784.939 349.998 792.901 348.628 801H385.084C385.799 793.203 386.558 785.589 387.409 779.751C404.438 713.445 495.929 699.771 550.011 698.812Z" fill="white"/>
<path d="M546.6 679.045C567.454 679.056 695.401 679.023 716.283 679.032C737.205 679.387 762.387 678.051 780.134 673.72C804.679 669.001 839.674 650.931 811.341 626.811C794.799 613.25 770.828 605.848 748.242 600.807C720.515 594.554 690.372 593.133 661.842 593.63C576.211 593.641 365.447 593.622 280.227 593.629C258.641 593.907 163.606 590.028 171.345 559.647C190.904 527.891 289.229 522.692 324.461 522.875C341.761 522.257 385.859 520.629 396.886 507.667C397.145 507.306 398.609 505.496 398.609 502.342C398.609 499.189 398.609 -75.321 398.609 -75.321H384.914C384.914 -75.321 384.914 495.866 384.914 500.555C384.914 505.898 382.989 507.112 382.759 507.422C371.203 519.388 327.767 519.222 310.964 519.428C273.14 520.18 173.874 527.817 152.392 560.593C141.058 595.194 246.252 600.345 269.919 600.406C366.711 600.55 585.941 600.41 683.02 600.457C711.281 600.468 742.711 604.856 768.502 615.459C808.846 632.266 803.01 655.37 762.02 663.947C742.608 668.619 715.653 667.951 694.369 667.926C658.369 668.095 521.12 666.78 485.613 671.254C423.129 679.802 360.6 696.026 315.841 745.523C307.454 755.398 301.269 765.728 296.595 777.233C294.244 783.894 291.676 792.401 289.162 801.001H325.629C327.172 793.771 328.705 786.793 330.064 781.589C357.175 697.25 475.155 679.577 546.6 679.045Z" fill="white"/>
<path d="M297.156 742.732C357.356 680.322 444.368 665.27 525.111 661.511C554.107 660.97 685.869 661.384 714.907 661.253C733.023 661.07 775.288 659.639 780.108 639.493C779.288 621.63 747.803 613.816 733.249 610.086C718.014 606.632 701.319 604.907 685.483 604.947C584.713 604.823 362.54 605.189 262.087 604.811C225.056 603.173 173.904 601.118 144.836 579.477C128.182 564.107 148.958 550.231 161.772 544.187C213.652 520.705 278.787 517.656 335.714 516.695C346.904 515.521 365.871 514.858 373.856 507.268C374.075 507.021 376.266 504.268 376.266 499.76C376.266 497.314 376.266 -75.3215 376.266 -75.3215H362.571C362.571 -75.3215 362.571 496.291 362.571 500.555C362.571 504.819 360.965 506.204 358.874 507.703C351.018 513.336 336.053 513.135 326.623 513.689C282.213 513.626 233.37 517.999 190.963 528.298C93.8859 551.741 93.9879 592.645 195.885 607.447C216.29 610.456 240.117 612.047 261.728 612.293C361.186 612.479 584.669 612.295 684.468 612.358C697.447 612.134 711.019 613.101 723.558 616.083C747.394 620.524 775.157 639.545 734.522 649.111C725.292 651.213 712.151 651.306 701.756 651.202C675.635 651.305 546.579 650.939 520.581 651.47C431.411 655.322 336.477 672.377 268.064 738.382C256.805 749.905 247.997 762.033 240.79 775.685C237.329 782.854 233.479 791.9 229.698 801H266.145C269.151 792.184 272.208 783.468 274.948 776.633C280.544 764.288 287.695 753.258 297.156 742.732Z" fill="white"/>
<path d="M569.012 704.346C617.423 703.643 769.505 706.643 817.082 700.618C872.272 696.27 982.3 658.246 898.049 598.243C824.622 553.162 733.853 544.275 650.354 544.251C568.298 544.04 364.905 544.675 283.262 543.998C275.153 543.798 235.756 540.143 245.357 527.099C259.285 515.162 285.238 513.986 303.441 512.737C348.66 512.008 397.287 510.647 438.577 494.397C444.708 491.273 451.948 488.427 451.948 472.948V-101H465.643V473.168C465.643 487.31 458.73 492.608 452.167 496.077C406.861 514.44 353.121 516.152 303.166 517.028C293.673 517.334 283.219 518.644 274.568 521.154C269.345 522.874 266.012 523.856 262.952 527.173C257.309 536.093 282.842 538.353 289.457 538.643C372.701 539.104 575.512 538.678 659.048 538.81C747.261 539.848 842.086 551.304 920.047 597.51C1019.42 664.37 900.881 709.873 835.098 715.398C790.315 721.69 639.876 719.421 593.946 719.854C580.202 719.932 562.391 719.294 548.954 721.236C530.586 724.286 502.613 732.198 501.44 756.139C502.454 767.919 506.328 788.924 507.933 801H469.544C468.783 790.784 467.139 769.573 466.402 759.461C466.411 758.063 466.235 756.075 466.439 754.695C471.748 711.485 537.093 703.527 569.012 704.346Z" fill="#A7A0F3"/>
<path d="M409.799 752.358C424.48 693.771 507.305 681.844 554.787 681.343C609.097 680.305 774.386 685.514 825.186 672.349C867 663.112 908.307 633.79 861.924 599.446C803.224 560.451 723.508 553.39 654.915 553.661C572.446 553.646 366.525 553.698 284.458 553.631C262.657 553.032 236.219 551.621 218.993 541.366C201.168 527.841 231.935 517.463 243.697 514.311C266.118 508.212 292.669 505.804 316.595 505.886C341.251 505.532 415.669 502.773 428.994 482.543C429.268 481.896 429.476 481.001 429.483 480.298C429.526 479.024 429.603 476.62 429.603 474.877C429.603 473.959 429.603 -101 429.603 -101H443.298V476.36C443.298 476.557 443.314 476.752 443.314 476.949C443.314 485.635 436.006 490.308 430.109 493.351C391.339 508.34 345.891 509.456 303.609 510.109C287.579 510.621 269.905 512.758 255.206 516.862C246.081 519.699 239.973 521.537 234.249 527.055C222.24 542.707 268.55 547.184 279.207 547.504C368.57 548.341 577.1 547.555 666.763 547.81C725.827 546.714 882.238 564.517 909.175 628.222C918.112 674.125 840.807 686.798 806.34 691.808C779.168 695.443 747.648 695.172 719.517 695.107C690.754 695.602 557.165 693.581 528.846 697.217C496.939 702.297 451.282 714.502 444.446 753.788C444.145 755.48 444.214 757.72 444.142 759.444C444.372 769.573 445.058 790.46 445.297 801H406.908C407.477 790.768 408.297 769.546 408.901 759.421C409.111 757.336 409.31 754.383 409.799 752.358Z" fill="#D1CEFE"/>
<path d="M545.576 660.794C592.603 659.469 747.241 664.764 792.115 654.505C854.752 640.055 851.242 605.501 795.167 583.852C753.619 567.527 704.549 562.847 659.836 563.807C572.966 563.767 362.243 563.891 275.795 563.753C246.67 562.711 211.136 560.92 188.81 546.426C166.833 527.774 210.564 514.158 225.476 510.271C251.276 503.511 281.796 500.202 309.476 499.678C329.993 499.711 353.796 498.743 373.124 495.093C383.515 492.771 399.794 490.529 405.829 482.142C406.644 480.824 407.26 478.129 407.26 474.877C407.26 474.037 407.26 -101 407.26 -101H420.955C420.955 -101 420.955 473.315 420.955 476.664C420.955 480.013 420.303 481.818 420.017 482.388C407.588 500.055 344.918 502.65 323.017 503.342C304.995 503.321 286.036 504.059 268.474 506.508C163.919 522.197 194.055 556.687 279.05 557.42C363.766 557.619 571.645 557.448 656.776 557.497C707.788 556.482 763.41 562.269 810.986 580.335C876.39 604.189 888.292 646.861 812.005 665.237C763.168 677.325 601.777 671.903 550.011 673.133C495.93 674.093 404.438 687.767 387.409 754.072C385.558 766.776 384.141 787.883 382.664 801H344.275C346.72 787.657 349.859 766.247 352.781 753.111C377.782 677.549 481.098 662.058 545.576 660.794Z" fill="#D1CEFE"/>
<path d="M315.841 719.844C360.6 670.346 423.129 654.123 485.613 645.575C521.12 641.101 658.369 642.416 694.369 642.247C715.653 642.272 742.608 642.94 762.02 638.269C803.01 629.691 808.847 606.587 768.502 589.78C742.712 579.178 711.281 574.79 683.02 574.779C585.941 574.732 366.711 574.871 269.919 574.727C246.252 574.666 141.058 569.515 152.392 534.914C173.874 502.138 273.14 494.501 310.964 493.749C327.767 493.544 371.203 493.709 382.759 481.743C382.989 481.433 384.914 480.219 384.914 474.877C384.914 470.187 384.914 -101 384.914 -101H398.609C398.609 -101 398.609 473.51 398.609 476.664C398.609 479.818 397.145 481.627 396.886 481.988C385.859 494.95 341.761 496.579 324.461 497.196C289.229 497.013 190.904 502.212 171.345 533.969C163.606 564.349 258.641 568.228 280.227 567.951C365.447 567.943 576.211 567.962 661.842 567.951C690.372 567.455 720.515 568.876 748.242 575.128C770.828 580.169 794.799 587.572 811.341 601.133C839.674 625.253 804.679 643.323 780.134 648.042C762.386 652.372 737.205 653.708 716.283 653.353C695.401 653.345 567.454 653.378 546.6 653.366C475.155 653.899 357.175 671.571 330.064 755.91C326.975 767.736 322.989 788.729 320.028 801H281.638C285.959 786.939 291.74 765.309 296.595 751.555C301.269 740.049 307.454 729.719 315.841 719.844Z" fill="#8CB1FF"/>
<path d="M190.963 502.62C233.37 492.321 282.213 487.948 326.623 488.011C336.053 487.457 351.018 487.658 358.874 482.025C360.965 480.526 362.571 479.141 362.571 474.877C362.571 470.612 362.571 -101 362.571 -101H376.266C376.266 -101 376.266 471.636 376.266 474.082C376.266 478.59 374.075 481.343 373.857 481.59C365.872 489.18 346.904 489.843 335.714 491.017C278.787 491.978 213.652 495.027 161.772 518.509C148.958 524.552 128.182 538.429 144.836 553.799C173.904 575.44 225.056 577.495 262.087 579.132C362.54 579.511 584.713 579.145 685.483 579.269C701.319 579.228 718.014 580.954 733.249 584.408C747.803 588.138 779.288 595.952 780.108 613.815C775.288 633.96 733.023 635.392 714.907 635.575C685.869 635.705 554.107 635.292 525.111 635.832C444.368 639.591 357.356 654.644 297.156 717.053C287.694 727.579 280.544 738.609 274.948 750.954C269.377 764.85 262.501 786.514 257.393 801H219.004C225.373 786.237 233.861 764.358 240.79 750.007C247.997 736.355 256.806 724.227 268.064 712.704C336.477 646.698 431.411 629.643 520.581 625.791C546.579 625.26 675.635 625.627 701.757 625.524C712.151 625.627 725.292 625.535 734.522 623.432C775.158 613.867 747.395 594.846 723.558 590.405C711.019 587.422 697.447 586.455 684.468 586.68C584.669 586.617 361.186 586.801 261.728 586.615C240.117 586.369 216.29 584.778 195.885 581.769C93.9879 566.967 93.8859 526.062 190.963 502.62Z" fill="#A7A0F3"/>
</g>
<rect x="705" y="800" width="705" height="800" transform="rotate(180 705 800)" fill="url(#paint0_linear_0_938)"/>
<rect x="366" y="572" width="120" height="120" rx="60" fill="url(#paint1_radial_0_938)"/>
<ellipse opacity="0.8" cx="451" cy="683.5" rx="61" ry="14.5" fill="url(#paint2_radial_0_938)"/>
<ellipse opacity="0.8" cx="251" cy="512" rx="27" ry="7" fill="url(#paint3_radial_0_938)"/>
<path d="M212 484.304C212 467.016 226.015 453 243.304 453C260.593 453 274.609 467.016 274.609 484.304C274.609 501.593 260.593 515.609 243.304 515.609C226.015 515.609 212 501.593 212 484.304Z" fill="url(#paint4_radial_0_938)"/>
<defs>
<linearGradient id="paint0_linear_0_938" x1="1057.5" y1="1600" x2="1057.5" y2="800" gradientUnits="userSpaceOnUse">
<stop offset="0.255" stop-color="white"/>
<stop offset="1" stop-color="white" stop-opacity="0"/>
</linearGradient>
<radialGradient id="paint1_radial_0_938" cx="0" cy="0" r="1" gradientUnits="userSpaceOnUse" gradientTransform="translate(387.625 610.793) scale(85.8677)">
<stop stop-color="#A9C4FF"/>
<stop offset="0.198" stop-color="#A6C2FF"/>
<stop offset="0.4921" stop-color="#8CB1FF"/>
<stop offset="0.8443" stop-color="#4679E6"/>
<stop offset="1" stop-color="#3970E6"/>
</radialGradient>
<radialGradient id="paint2_radial_0_938" cx="0" cy="0" r="1" gradientUnits="userSpaceOnUse" gradientTransform="translate(451 683.5) rotate(90) scale(14.5 61)">
<stop stop-color="#6E65EB"/>
<stop offset="1" stop-color="#6E65EB" stop-opacity="0"/>
</radialGradient>
<radialGradient id="paint3_radial_0_938" cx="0" cy="0" r="1" gradientUnits="userSpaceOnUse" gradientTransform="translate(251 512) rotate(90) scale(7 27)">
<stop stop-color="#6E65EB"/>
<stop offset="1" stop-color="#6E65EB" stop-opacity="0"/>
</radialGradient>
<radialGradient id="paint4_radial_0_938" cx="0" cy="0" r="1" gradientUnits="userSpaceOnUse" gradientTransform="translate(223.283 473.24) scale(44.8005)">
<stop stop-color="#E0D7F9"/>
<stop offset="0.198" stop-color="#D9CEFA"/>
<stop offset="0.4921" stop-color="#BEABF7"/>
<stop offset="0.8443" stop-color="#B098F8"/>
<stop offset="1" stop-color="#9777F8"/>
</radialGradient>
<clipPath id="clip0_0_938">
<rect width="902" height="902" fill="white" transform="translate(106 -101)"/>
</clipPath>
</defs>
</svg>
