<svg width="375" height="336" viewBox="0 0 375 336" fill="none" xmlns="http://www.w3.org/2000/svg">
<g opacity="0.5" clip-path="url(#clip0_0_2464)">
<path d="M172.4 328.854C172.888 319.936 184.517 316.989 192.153 315.853C197.74 315.129 205.145 315.367 210.858 315.338C229.953 315.177 292.498 316.022 311.116 313.678C338.464 311.62 387.744 294.67 346.433 269.764C314.021 252.552 274.598 248.285 237.924 247.898C203.195 247.849 118.878 248.008 84.2696 247.836C81.5194 247.728 70.9042 246.886 73.25 243.563C74.5221 242.328 75.9082 241.962 78.0793 241.321C81.6758 240.386 86.0224 239.898 89.9687 239.784C110.737 239.458 133.079 238.82 151.915 231.98C154.643 230.688 157.517 228.714 157.517 223.446V9.56543H151.824V223.364C151.824 229.13 148.814 230.19 146.265 231.354C129.099 237.407 108.882 237.914 90.0832 238.186C82.5152 238.651 71.7257 239.089 65.935 243.536C61.9435 248.395 78.3226 249.756 81.6938 249.831C115.636 250.083 200.196 249.846 234.31 249.925C269.024 249.934 306.76 253.244 337.287 270.037C372.314 292.389 326.571 306.553 303.626 308.172C283.846 310.417 220.619 309.299 200.492 309.561C187.222 309.256 160.056 312.221 157.848 328.316C157.764 328.83 157.837 329.571 157.833 330.092C157.955 331.583 158.135 333.723 158.328 336H173.454C172.994 333.338 172.584 330.769 172.4 328.854Z" fill="white"/>
<path d="M148.707 327.979C151.549 313.344 170.53 308.798 183.795 306.906C195.569 305.551 251.108 306.304 263.066 306.119C274.761 306.144 287.865 306.245 299.162 304.891C313.491 303.025 345.63 298.304 341.915 281.204C330.716 257.474 265.689 250.842 241.134 251.251C203.857 251.155 117.162 251.448 80.0101 251.137C75.5793 251.017 56.3263 249.35 61.319 243.519C63.6986 241.464 66.238 240.779 70.0317 239.722C76.1426 238.193 83.4904 237.398 90.155 237.207C107.733 236.964 126.628 236.548 142.746 230.964C145.198 229.831 148.236 228.09 148.236 224.854C148.236 224.781 148.23 224.708 148.23 224.635V9.56543H142.536C142.536 9.56543 142.536 223.741 142.536 224.083C142.536 224.732 142.504 225.627 142.486 226.102C142.483 226.364 142.397 226.697 142.283 226.938C136.743 234.474 105.804 235.502 95.5537 235.634C85.6067 235.603 74.5683 236.5 65.2467 238.772C60.3571 239.946 47.566 243.812 54.9763 248.85C62.1382 252.67 73.1293 253.196 82.1929 253.419C116.312 253.444 201.922 253.425 236.208 253.43C264.725 253.329 297.866 255.96 322.271 270.486C341.554 283.279 324.381 294.201 306.997 297.642C285.877 302.546 217.16 300.606 194.58 300.993C174.84 301.179 140.406 305.622 134.303 327.446C134.099 328.2 134.017 329.3 133.929 330.077C133.83 331.572 133.716 333.718 133.6 336H148.761C148.687 333.724 148.619 331.587 148.581 330.086C148.61 329.443 148.582 328.609 148.707 327.979Z" fill="white"/>
<path d="M192.593 297.934C214.115 297.476 281.212 299.496 301.515 294.993C333.231 288.148 328.283 272.252 301.092 263.366C281.312 256.637 258.188 254.481 236.98 254.859C201.587 254.841 115.163 254.905 79.9431 254.83C44.607 254.557 32.0783 241.709 75.5462 235.865C82.8477 234.953 90.7297 234.678 98.2223 234.686C107.327 234.428 133.382 233.462 138.549 226.881C138.668 226.668 138.939 225.996 138.939 224.748C138.939 223.501 138.939 9.56537 138.939 9.56537H133.246C133.246 9.56537 133.246 223.77 133.246 224.083C133.246 225.294 132.989 226.298 132.651 226.789C130.142 229.913 123.374 230.748 119.054 231.613C111.018 232.973 101.122 233.333 92.5924 233.321C81.0849 233.516 68.3962 234.749 57.6699 237.267C51.4704 238.715 33.2897 243.787 42.4264 250.735C51.7084 256.134 66.4812 256.801 78.5898 257.19C114.53 257.241 202.137 257.195 238.252 257.21C256.841 256.852 277.242 258.595 294.515 264.677C317.828 272.741 319.287 285.613 293.246 290.995C274.59 294.817 210.3 292.844 190.749 293.338C163.943 293.809 120.99 299.579 110.596 327.726C110.028 330.017 109.439 332.983 108.87 336H124.026C124.323 333.096 124.639 330.259 124.992 328.085C132.072 303.385 170.109 298.292 192.593 297.934Z" fill="white"/>
<path d="M191.177 290.571C199.846 290.575 253.039 290.563 261.721 290.566C270.419 290.698 280.888 290.201 288.267 288.588C298.471 286.83 313.02 280.099 301.24 271.114C294.364 266.062 284.398 263.305 275.008 261.427C263.48 259.098 250.949 258.569 239.088 258.753C203.487 258.757 115.864 258.75 80.4339 258.753C71.4596 258.857 31.9495 257.412 35.1668 246.095C43.2986 234.265 84.1765 232.329 98.8237 232.397C106.016 232.167 124.35 231.56 128.934 226.732C129.042 226.597 129.65 225.923 129.65 224.748C129.65 223.574 129.65 9.56555 129.65 9.56555H123.957C123.957 9.56555 123.957 222.336 123.957 224.083C123.957 226.073 123.157 226.525 123.061 226.641C118.256 231.098 100.198 231.036 93.2127 231.113C77.4874 231.393 36.2182 234.238 27.2874 246.447C22.5755 259.336 66.309 261.255 76.1482 261.278C116.389 261.331 207.532 261.279 247.892 261.297C259.641 261.301 272.708 262.935 283.431 266.885C300.204 273.146 297.777 281.752 280.736 284.947C272.665 286.687 261.459 286.439 252.61 286.429C237.644 286.492 180.583 286.002 165.822 287.669C139.844 290.853 113.848 296.896 95.2403 315.334C91.7533 319.013 89.1818 322.861 87.2388 327.147C86.2614 329.628 85.1938 332.797 84.1486 336H99.3095C99.9509 333.307 100.588 330.708 101.153 328.769C112.424 297.352 161.474 290.769 191.177 290.571Z" fill="white"/>
<path d="M87.472 314.295C112.5 291.047 148.674 285.44 182.243 284.039C194.297 283.838 249.077 283.992 261.149 283.943C268.68 283.875 286.252 283.342 288.256 275.838C287.915 269.184 274.825 266.273 268.774 264.883C262.44 263.597 255.5 262.954 248.916 262.969C207.022 262.923 114.655 263.059 72.8923 262.918C57.4967 262.308 36.2306 261.543 24.146 253.481C17.2221 247.756 25.8597 242.587 31.1869 240.336C52.7555 231.589 79.835 230.453 103.502 230.095C108.154 229.657 116.04 229.411 119.359 226.583C119.45 226.491 120.361 225.466 120.361 223.786C120.361 222.875 120.361 9.56531 120.361 9.56531H114.667C114.667 9.56531 114.667 222.494 114.667 224.082C114.667 225.671 114 226.187 113.131 226.745C109.864 228.844 103.643 228.769 99.7225 228.975C81.2594 228.952 60.9531 230.581 43.323 234.417C2.96377 243.149 3.00615 258.386 45.3693 263.9C53.8522 265.021 63.7584 265.614 72.743 265.706C114.092 265.775 207.003 265.706 248.494 265.73C253.89 265.646 259.532 266.006 264.746 267.118C274.655 268.772 286.198 275.857 269.304 279.42C265.466 280.203 260.003 280.238 255.682 280.199C244.822 280.238 191.167 280.101 180.359 280.299C143.288 281.734 103.819 288.087 75.3771 312.675C70.6964 316.967 67.0342 321.485 64.038 326.57C62.5992 329.24 60.9985 332.61 59.4268 336H74.5793C75.8291 332.716 77.0997 329.469 78.2391 326.923C80.5655 322.324 83.5383 318.216 87.472 314.295Z" fill="white"/>
<path d="M200.492 299.996C220.619 299.734 283.846 300.852 303.626 298.607C326.571 296.987 372.314 282.823 337.287 260.472C306.76 243.679 269.024 240.368 234.31 240.359C200.196 240.281 115.636 240.517 81.6938 240.265C78.3226 240.191 61.9435 238.829 65.935 233.97C71.7257 229.524 82.5153 229.086 90.0832 228.62C108.883 228.349 129.099 227.842 146.265 221.789C148.814 220.625 151.824 219.565 151.824 213.799V0H157.517V213.881C157.517 219.149 154.644 221.122 151.915 222.415C133.079 229.255 110.737 229.893 89.9687 230.219C86.0223 230.333 81.6758 230.821 78.0793 231.756C75.9081 232.396 74.5221 232.762 73.25 233.998C70.9042 237.321 81.5194 238.162 84.2696 238.27C118.878 238.442 203.195 238.284 237.924 238.333C274.598 238.719 314.021 242.987 346.433 260.199C387.744 285.104 338.464 302.055 311.116 304.113C292.498 306.456 229.953 305.612 210.858 305.773C205.145 305.802 197.74 305.564 192.153 306.287C184.517 307.423 172.888 310.371 172.4 319.289C172.821 323.677 174.432 331.502 175.099 336H159.139C158.823 332.195 158.139 324.293 157.833 320.526C157.837 320.006 157.764 319.265 157.848 318.751C160.056 302.655 187.222 299.691 200.492 299.996Z" fill="#A7A0F3"/>
<path d="M134.302 317.881C140.406 296.056 174.84 291.614 194.58 291.427C217.16 291.04 285.877 292.981 306.997 288.077C324.381 284.636 341.554 273.713 322.271 260.92C297.866 246.394 264.725 243.764 236.208 243.865C201.922 243.859 116.312 243.878 82.1928 243.854C73.1293 243.63 62.1382 243.105 54.9763 239.285C47.566 234.247 60.3571 230.381 65.2468 229.207C74.5683 226.935 85.6067 226.038 95.5537 226.068C105.805 225.937 136.743 224.909 142.283 217.373C142.397 217.132 142.483 216.799 142.486 216.537C142.504 216.062 142.536 215.167 142.536 214.517C142.536 214.175 142.536 0 142.536 0H148.23V215.07C148.23 215.143 148.236 215.216 148.236 215.289C148.236 218.525 145.198 220.265 142.747 221.399C126.628 226.982 107.733 227.398 90.1551 227.642C83.4905 227.832 76.1427 228.628 70.0317 230.157C66.238 231.214 63.6987 231.898 61.319 233.954C56.3264 239.785 75.5794 241.452 80.0101 241.571C117.162 241.883 203.857 241.59 241.134 241.685C265.689 241.277 330.716 247.909 341.915 271.639C345.63 288.738 313.491 293.459 299.162 295.325C287.865 296.679 274.761 296.578 263.066 296.554C251.108 296.739 195.569 295.986 183.796 297.34C170.53 299.233 151.549 303.779 148.707 318.413C148.582 319.043 148.61 319.878 148.581 320.52C148.676 324.293 148.961 332.074 149.061 336H133.101C133.337 332.189 133.678 324.283 133.929 320.511C134.017 319.735 134.099 318.635 134.302 317.881Z" fill="#D1CEFE"/>
<path d="M190.749 283.772C210.3 283.279 274.59 285.251 293.246 281.43C319.287 276.047 317.828 263.176 294.515 255.111C277.242 249.03 256.841 247.287 238.252 247.644C202.137 247.629 114.53 247.676 78.5898 247.624C66.4812 247.236 51.7084 246.569 42.4264 241.17C33.2897 234.222 51.4704 229.15 57.6699 227.702C68.3962 225.184 81.0849 223.951 92.5923 223.756C101.122 223.768 111.018 223.407 119.054 222.048C123.374 221.183 130.141 220.348 132.651 217.224C132.989 216.733 133.246 215.729 133.246 214.517C133.246 214.205 133.246 0 133.246 0H138.939C138.939 0 138.939 213.935 138.939 215.183C138.939 216.43 138.668 217.103 138.549 217.315C133.382 223.896 107.327 224.863 98.2222 225.121C90.7296 225.113 82.8477 225.388 75.5462 226.3C32.0783 232.144 44.607 244.992 79.9431 245.265C115.163 245.339 201.587 245.276 236.98 245.294C258.188 244.916 281.312 247.071 301.092 253.801C328.283 262.687 333.231 278.582 301.515 285.427C281.212 289.93 214.115 287.91 192.593 288.369C170.109 288.726 132.072 293.82 124.993 318.519C124.223 323.251 123.634 331.114 123.02 336H107.06C108.076 331.03 109.382 323.054 110.596 318.161C120.99 290.014 163.943 284.243 190.749 283.772Z" fill="#D1CEFE"/>
<path d="M95.2403 305.769C113.848 287.331 139.844 281.287 165.822 278.103C180.583 276.437 237.644 276.927 252.61 276.864C261.459 276.873 272.665 277.122 280.736 275.382C297.777 272.186 300.204 263.58 283.431 257.319C272.708 253.37 259.642 251.735 247.892 251.731C207.532 251.714 116.389 251.766 76.1482 251.712C66.309 251.689 22.5755 249.77 27.2874 236.881C36.2182 224.672 77.4874 221.827 93.2127 221.547C100.198 221.471 118.256 221.532 123.061 217.075C123.157 216.959 123.957 216.507 123.957 214.517C123.957 212.77 123.957 6.10352e-05 123.957 6.10352e-05H129.65C129.65 6.10352e-05 129.65 214.008 129.65 215.183C129.65 216.358 129.042 217.032 128.934 217.166C124.35 221.995 106.016 222.601 98.8237 222.831C84.1764 222.763 43.2985 224.7 35.1668 236.529C31.9494 247.846 71.4595 249.291 80.4339 249.188C115.864 249.185 203.487 249.192 239.088 249.188C250.949 249.003 263.48 249.533 275.008 251.861C284.398 253.739 294.363 256.497 301.24 261.548C313.02 270.533 298.471 277.264 288.267 279.022C280.888 280.635 270.419 281.133 261.721 281.001C253.039 280.998 199.846 281.01 191.177 281.006C161.474 281.204 112.424 287.787 101.153 319.204C99.8689 323.609 98.212 331.429 96.9807 336H81.0207C82.817 330.762 85.2204 322.705 87.2388 317.581C89.1818 313.295 91.7533 309.448 95.2403 305.769Z" fill="#8CB1FF"/>
<path d="M43.3231 224.852C60.9531 221.015 81.2595 219.386 99.7226 219.41C103.643 219.204 109.865 219.278 113.131 217.18C114 216.622 114.668 216.106 114.668 214.517C114.668 212.929 114.668 0 114.668 0H120.361C120.361 0 120.361 213.31 120.361 214.221C120.361 215.9 119.45 216.926 119.36 217.018C116.04 219.845 108.154 220.092 103.502 220.529C79.835 220.887 52.7556 222.023 31.187 230.77C25.8597 233.022 17.2222 238.191 24.1459 243.916C36.2306 251.977 57.4967 252.743 72.8923 253.353C114.655 253.494 207.022 253.358 248.916 253.404C255.5 253.389 262.44 254.031 268.774 255.318C274.825 256.708 287.915 259.618 288.256 266.273C286.252 273.777 268.68 274.31 261.149 274.378C249.077 274.427 194.297 274.273 182.243 274.474C148.674 275.874 112.5 281.481 87.4719 304.729C83.5382 308.65 80.5654 312.759 78.2391 317.358C75.923 322.534 73.0643 330.604 70.9408 336H54.9809C57.6285 330.501 61.1576 322.35 64.038 317.005C67.0343 311.919 70.6964 307.402 75.3772 303.109C103.819 278.522 143.288 272.169 180.359 270.734C191.168 270.536 244.822 270.672 255.682 270.634C260.003 270.673 265.466 270.638 269.304 269.855C286.198 266.292 274.655 259.206 264.746 257.552C259.532 256.441 253.89 256.081 248.494 256.164C207.003 256.141 114.092 256.21 72.743 256.14C63.7584 256.049 53.8522 255.456 45.3693 254.335C3.00614 248.821 2.96376 233.584 43.3231 224.852Z" fill="#A7A0F3"/>
</g>
<rect x="367" y="106" width="375" height="106" transform="rotate(180 367 106)" fill="url(#paint0_linear_0_2464)"/>
<rect x="128.16" y="250.372" width="44.6429" height="44.6429" rx="22.3214" fill="url(#paint1_radial_0_2464)"/>
<ellipse opacity="0.8" cx="159.783" cy="291.853" rx="22.6935" ry="5.39435" fill="url(#paint2_radial_0_2464)"/>
<ellipse opacity="0.8" cx="85.3757" cy="228.051" rx="10.0446" ry="2.60417" fill="url(#paint3_radial_0_2464)"/>
<path d="M70.8672 217.747C70.8672 211.315 76.0813 206.101 82.5132 206.101C88.945 206.101 94.1591 211.315 94.1591 217.747C94.1591 224.179 88.945 229.393 82.5132 229.393C76.0813 229.393 70.8672 224.179 70.8672 217.747Z" fill="url(#paint4_radial_0_2464)"/>
<defs>
<linearGradient id="paint0_linear_0_2464" x1="554.5" y1="212" x2="554.5" y2="106" gradientUnits="userSpaceOnUse">
<stop offset="0.255" stop-color="white"/>
<stop offset="1" stop-color="white" stop-opacity="0"/>
</linearGradient>
<radialGradient id="paint1_radial_0_2464" cx="0" cy="0" r="1" gradientUnits="userSpaceOnUse" gradientTransform="translate(136.205 264.804) scale(31.9448)">
<stop stop-color="#A9C4FF"/>
<stop offset="0.198" stop-color="#A6C2FF"/>
<stop offset="0.4921" stop-color="#8CB1FF"/>
<stop offset="0.8443" stop-color="#4679E6"/>
<stop offset="1" stop-color="#3970E6"/>
</radialGradient>
<radialGradient id="paint2_radial_0_2464" cx="0" cy="0" r="1" gradientUnits="userSpaceOnUse" gradientTransform="translate(159.783 291.853) rotate(90) scale(5.39435 22.6935)">
<stop stop-color="#6E65EB"/>
<stop offset="1" stop-color="#6E65EB" stop-opacity="0"/>
</radialGradient>
<radialGradient id="paint3_radial_0_2464" cx="0" cy="0" r="1" gradientUnits="userSpaceOnUse" gradientTransform="translate(85.3757 228.051) rotate(90) scale(2.60417 10.0446)">
<stop stop-color="#6E65EB"/>
<stop offset="1" stop-color="#6E65EB" stop-opacity="0"/>
</radialGradient>
<radialGradient id="paint4_radial_0_2464" cx="0" cy="0" r="1" gradientUnits="userSpaceOnUse" gradientTransform="translate(75.0646 213.631) scale(16.6669)">
<stop stop-color="#E0D7F9"/>
<stop offset="0.198" stop-color="#D9CEFA"/>
<stop offset="0.4921" stop-color="#BEABF7"/>
<stop offset="0.8443" stop-color="#B098F8"/>
<stop offset="1" stop-color="#9777F8"/>
</radialGradient>
<clipPath id="clip0_0_2464">
<rect width="375" height="336" fill="white" transform="translate(8)"/>
</clipPath>
</defs>
</svg>
