<svg width="606" height="305" viewBox="0 0 606 305" fill="none" xmlns="http://www.w3.org/2000/svg">
<path d="M206.879 52.0782L206.245 252.193L155.719 245.616L155.963 53.2394L206.879 52.0782Z" fill="url(#paint0_linear_0_1213)"/>
<path d="M206.881 52.0782L247.249 53.2394L246.342 247.197L206.246 252.193L206.881 52.0782Z" fill="url(#paint1_linear_0_1213)"/>
<path d="M157.408 99.5988C144.245 100.204 133.765 115.221 133.716 134.161L133.306 273.738L140.752 273.397L141.161 133.82C141.22 114.88 151.69 99.8623 164.854 99.2573L157.408 99.5988Z" fill="url(#paint2_linear_0_1213)"/>
<path d="M157.164 94.3392L164.609 93.9977C165.282 93.9684 165.965 93.9684 166.658 93.9977L159.213 94.3392C158.53 94.3002 157.847 94.3002 157.164 94.3392Z" fill="url(#paint3_linear_0_1213)"/>
<path d="M159.213 94.349C175.255 95.1882 188.242 114.333 188.174 137.02L187.764 276.597L184.056 276.402L184.466 136.825C184.525 117.036 173.186 100.34 159.203 99.6085C145.21 98.8766 133.784 114.372 133.725 134.171L133.315 273.748L129.597 273.553L130.007 133.976C130.076 111.289 143.18 93.5098 159.222 94.3587L159.213 94.349Z" fill="url(#paint4_linear_0_1213)"/>
<path d="M166.658 94.0074L159.213 94.3489C175.255 95.1881 188.242 114.333 188.174 137.02L187.764 276.597L195.21 276.256L195.619 136.679C195.688 113.992 182.7 94.8466 166.658 94.0074Z" fill="url(#paint5_linear_0_1213)"/>
<g style="mix-blend-mode:multiply">
<path d="M319.582 250.29L198.584 260.107L416.439 298.143L605.059 262.478L598.17 261.512L494.736 281.027L319.582 250.29Z" fill="url(#paint6_linear_0_1213)"/>
</g>
<path d="M294.322 9.15527e-05L399.229 5.63039L399.19 28.4931L294.391 24.8339L294.322 9.15527e-05Z" fill="url(#paint7_linear_0_1213)"/>
<path d="M313.526 24.1216L418.55 27.8979L418.491 51.0924L313.574 49.3555L313.526 24.1216Z" fill="url(#paint8_linear_0_1213)"/>
<path d="M333.404 49.0823L438.497 50.8778L438.419 74.4235L333.434 74.7358L333.404 49.0823Z" fill="url(#paint9_linear_0_1213)"/>
<path d="M353.99 74.9408L459.092 74.609L458.995 98.5256L354 101.033L353.99 74.9408Z" fill="url(#paint10_linear_0_1213)"/>
<path d="M375.342 101.746L480.386 99.1404L480.259 123.428L375.322 128.277L375.342 101.746Z" fill="url(#paint11_linear_0_1213)"/>
<path d="M397.484 129.546L502.411 124.501L502.255 149.169L397.445 156.536L397.484 129.546Z" fill="url(#paint12_linear_0_1213)"/>
<path d="M420.455 158.4L525.177 150.73L525.001 175.808L420.387 185.868L420.455 158.4Z" fill="url(#paint13_linear_0_1213)"/>
<path d="M444.32 188.366L548.749 177.896L548.544 203.384L444.223 216.333L444.32 188.366Z" fill="url(#paint14_linear_0_1213)"/>
<path d="M469.117 219.514L573.165 206.028L572.931 231.936L468.99 247.997L469.117 219.514Z" fill="url(#paint15_linear_0_1213)"/>
<path d="M494.914 251.91L598.474 235.185L598.201 261.531L494.748 280.92L494.914 251.91Z" fill="url(#paint16_linear_0_1213)"/>
<path d="M333.436 74.7361L438.421 74.4239L459.098 74.6093L353.995 74.9411L333.436 74.7361Z" fill="#A0D1F3"/>
<path d="M354.004 101.034L458.999 98.5259L480.388 99.1406L375.344 101.746L354.004 101.034Z" fill="#A0D1F3"/>
<path d="M375.326 128.278L480.263 123.428L502.413 124.501L397.486 129.546L375.326 128.278Z" fill="#A0D1F3"/>
<path d="M397.449 156.537L502.259 149.169L525.18 150.731L420.458 158.4L397.449 156.537Z" fill="#A0D1F3"/>
<path d="M420.389 185.869L525.003 175.808L548.754 177.897L444.325 188.367L420.389 185.869Z" fill="#A0D1F3"/>
<path d="M444.225 216.333L548.546 203.384L573.165 206.029L469.117 219.514L444.225 216.333Z" fill="#A0D1F3"/>
<path d="M468.996 247.997L572.937 231.936L598.483 235.185L494.923 251.91L468.996 247.997Z" fill="#A0D1F3"/>
<path d="M333.436 74.7361L438.421 74.4239L459.098 74.6093L353.995 74.9411L333.436 74.7361Z" fill="url(#paint17_linear_0_1213)"/>
<path d="M354.004 101.034L458.999 98.5259L480.388 99.1406L375.344 101.746L354.004 101.034Z" fill="url(#paint18_linear_0_1213)"/>
<path d="M375.326 128.278L480.263 123.428L502.413 124.501L397.486 129.546L375.326 128.278Z" fill="url(#paint19_linear_0_1213)"/>
<path d="M397.449 156.537L502.259 149.169L525.18 150.731L420.458 158.4L397.449 156.537Z" fill="url(#paint20_linear_0_1213)"/>
<path d="M420.389 185.869L525.003 175.808L548.754 177.897L444.325 188.367L420.389 185.869Z" fill="url(#paint21_linear_0_1213)"/>
<path d="M444.225 216.333L548.546 203.384L573.165 206.029L469.117 219.514L444.225 216.333Z" fill="url(#paint22_linear_0_1213)"/>
<path d="M468.996 247.997L572.937 231.936L598.483 235.185L494.923 251.91L468.996 247.997Z" fill="url(#paint23_linear_0_1213)"/>
<g style="mix-blend-mode:soft-light" opacity="0.5">
<path d="M294.32 9.15527e-05L399.227 5.63039L399.188 28.4931L294.389 24.8339L294.32 9.15527e-05Z" fill="url(#paint24_linear_0_1213)"/>
<path d="M313.524 24.1216L418.548 27.8979L418.489 51.0924L313.572 49.3555L313.524 24.1216Z" fill="url(#paint25_linear_0_1213)"/>
<path d="M333.402 49.0823L438.495 50.8778L438.417 74.4235L333.432 74.7358L333.402 49.0823Z" fill="url(#paint26_linear_0_1213)"/>
<path d="M353.988 74.9408L459.091 74.609L458.993 98.5256L353.998 101.033L353.988 74.9408Z" fill="url(#paint27_linear_0_1213)"/>
<path d="M375.34 101.746L480.384 99.1404L480.257 123.428L375.32 128.277L375.34 101.746Z" fill="url(#paint28_linear_0_1213)"/>
<path d="M397.482 129.546L502.409 124.501L502.253 149.169L397.443 156.536L397.482 129.546Z" fill="url(#paint29_linear_0_1213)"/>
<path d="M420.453 158.4L525.175 150.73L524.999 175.808L420.385 185.868L420.453 158.4Z" fill="url(#paint30_linear_0_1213)"/>
<path d="M444.318 188.366L548.747 177.896L548.542 203.384L444.221 216.333L444.318 188.366Z" fill="url(#paint31_linear_0_1213)"/>
<path d="M469.115 219.514L573.163 206.028L572.929 231.936L468.988 247.997L469.115 219.514Z" fill="url(#paint32_linear_0_1213)"/>
<path d="M494.912 251.91L598.472 235.185L598.199 261.531L494.746 280.92L494.912 251.91Z" fill="url(#paint33_linear_0_1213)"/>
<path d="M294.32 9.15527e-05L399.227 5.63039L399.188 28.4931C358.262 27.0641 335.315 26.2629 294.389 24.8339L294.32 9.15527e-05Z" fill="url(#paint34_linear_0_1213)"/>
<path d="M313.524 24.1216L418.548 27.8979L418.489 51.0924L313.572 49.3555L313.524 24.1216Z" fill="url(#paint35_linear_0_1213)"/>
<path d="M333.402 49.0823L438.495 50.8778L438.417 74.4235L333.432 74.7358L333.402 49.0823Z" fill="url(#paint36_linear_0_1213)"/>
<path d="M353.988 74.9408L459.091 74.609L458.993 98.5256L353.998 101.033L353.988 74.9408Z" fill="url(#paint37_linear_0_1213)"/>
<path d="M375.34 101.746L480.384 99.1404L480.257 123.428L375.32 128.277L375.34 101.746Z" fill="url(#paint38_linear_0_1213)"/>
<path d="M397.482 129.546L502.409 124.501L502.253 149.169L397.443 156.536L397.482 129.546Z" fill="url(#paint39_linear_0_1213)"/>
<path d="M420.453 158.4L525.175 150.73L524.999 175.808L420.385 185.868L420.453 158.4Z" fill="url(#paint40_linear_0_1213)"/>
<path d="M444.318 188.366L548.747 177.896L548.542 203.384L444.221 216.333L444.318 188.366Z" fill="url(#paint41_linear_0_1213)"/>
<path d="M469.115 219.514L573.163 206.028L572.929 231.936L468.988 247.997L469.115 219.514Z" fill="url(#paint42_linear_0_1213)"/>
</g>
<path d="M294.322 6.10352e-05L294.39 24.8339L313.526 24.1216L313.574 49.3555L333.402 49.0823L333.432 74.7358L353.992 74.9407L354.001 101.033L375.342 101.746L375.322 128.277L397.483 129.546L397.444 156.536L420.453 158.4L420.384 185.868L444.32 188.366L444.223 216.333L469.115 219.514L468.988 247.997L494.915 251.91L494.749 280.92L468.852 276.402L276.895 242.874V1.13198L294.322 6.10352e-05Z" fill="url(#paint43_linear_0_1213)" style="mix-blend-mode:multiply"/>
<g style="mix-blend-mode:multiply">
<path d="M323.584 278.51L235.353 260.223L0.5 281.769L88.7309 300.055L323.584 278.51Z" fill="url(#paint44_linear_0_1213)"/>
</g>
<path d="M292.335 174.452L215.072 172.295L214.662 148.603L291.984 148.086L292.335 174.452Z" fill="url(#paint45_linear_0_1213)"/>
<path d="M265.755 202.037L190.346 197.051L189.897 173.124L265.354 175.388L265.755 202.037Z" fill="url(#paint46_linear_0_1213)"/>
<path d="M238.504 230.325L165.066 222.363L164.588 198.193L238.075 203.384L238.504 230.325Z" fill="url(#paint47_linear_0_1213)"/>
<path d="M210.566 259.335L139.217 248.25L138.699 223.826L210.088 232.082L210.566 259.335Z" fill="url(#paint48_linear_0_1213)"/>
<path d="M181.916 289.077L112.771 274.724L112.215 250.065L181.389 261.531L181.916 289.077Z" fill="url(#paint49_linear_0_1213)"/>
<g style="mix-blend-mode:soft-light" opacity="0.3">
<path d="M292.333 174.451L215.07 172.295L214.66 148.603L291.982 148.086L292.333 174.451Z" fill="#DBEDFD"/>
<path d="M265.752 202.037L190.343 197.051L189.895 173.124L265.352 175.388L265.752 202.037Z" fill="url(#paint50_linear_0_1213)"/>
<path d="M238.502 230.325L165.064 222.363L164.586 198.192L238.073 203.384L238.502 230.325Z" fill="#DBEDFD"/>
<path d="M210.564 259.335L139.214 248.25L138.697 223.826L210.086 232.082L210.564 259.335Z" fill="#DBEDFD"/>
<path d="M181.914 289.077L112.769 274.724L112.213 250.065L181.387 261.531L181.914 289.077Z" fill="#DBEDFD"/>
<path d="M292.333 174.451L215.07 172.295L214.66 148.603L291.982 148.086L292.333 174.451Z" fill="url(#paint51_linear_0_1213)"/>
<path d="M265.752 202.037L190.343 197.051L189.895 173.124L265.352 175.388L265.752 202.037Z" fill="url(#paint52_linear_0_1213)"/>
<path d="M238.502 230.325L165.064 222.363L164.586 198.192L238.073 203.384L238.502 230.325Z" fill="url(#paint53_linear_0_1213)"/>
<path d="M210.564 259.335L139.214 248.25L138.697 223.826L210.086 232.082L210.564 259.335Z" fill="url(#paint54_linear_0_1213)"/>
<path d="M181.914 289.077L112.769 274.724L112.213 250.065L181.387 261.531L181.914 289.077Z" fill="url(#paint55_linear_0_1213)"/>
</g>
<path d="M291.982 148.086L214.66 148.603L239.25 148.086L318.269 147.52L291.982 148.086Z" fill="#DBEDFD"/>
<path d="M265.352 175.388L189.895 173.124L215.07 172.295L292.333 174.451L265.352 175.388Z" fill="#DBEDFD"/>
<path d="M238.073 203.384L164.586 198.193L190.347 197.051L265.756 202.037L238.073 203.384Z" fill="#DBEDFD"/>
<path d="M210.086 232.082L138.697 223.827L165.063 222.363L238.501 230.325L210.086 232.082Z" fill="#DBEDFD"/>
<path d="M181.387 261.531L112.213 250.065L139.213 248.25L210.563 259.335L181.387 261.531Z" fill="#DBEDFD"/>
<path d="M291.982 148.086L214.66 148.603L239.25 148.086L318.269 147.52L291.982 148.086Z" fill="url(#paint56_linear_0_1213)"/>
<path d="M265.352 175.388L189.895 173.124L215.07 172.295L292.333 174.451L265.352 175.388Z" fill="url(#paint57_linear_0_1213)"/>
<path d="M238.073 203.384L164.586 198.193L190.347 197.051L265.756 202.037L238.073 203.384Z" fill="url(#paint58_linear_0_1213)"/>
<path d="M210.086 232.082L138.697 223.827L165.063 222.363L238.501 230.325L210.086 232.082Z" fill="url(#paint59_linear_0_1213)"/>
<path d="M181.387 261.531L112.213 250.065L139.213 248.25L210.563 259.335L181.387 261.531Z" fill="url(#paint60_linear_0_1213)"/>
<path d="M318.272 147.52L319.824 276.88L211.043 286.501L181.916 289.078L181.389 261.531L210.565 259.335L210.087 232.082L238.502 230.325L238.072 203.384L265.755 202.037L265.355 175.388L292.336 174.452L291.985 148.086L318.272 147.52Z" fill="url(#paint61_linear_0_1213)"/>
<g style="mix-blend-mode:multiply">
<path d="M251.864 285.233C261.358 284.277 272.102 283.584 283.411 283.116C294.662 282.657 306.537 282.442 318.393 282.452C330.249 282.462 342.154 282.716 353.463 283.194C364.831 283.682 375.662 284.404 385.274 285.37C395.002 286.355 402.604 287.497 408.019 288.736C413.513 289.995 416.772 291.351 417.67 292.727C418.587 294.123 417.065 295.547 413.006 296.894C408.878 298.27 402.135 299.577 392.67 300.719C383.088 301.88 371.681 302.749 359.269 303.334C346.779 303.92 333.352 304.212 319.867 304.193C306.371 304.183 292.906 303.861 280.328 303.256C267.828 302.651 256.284 301.753 246.526 300.573C236.895 299.411 229.957 298.084 225.635 296.708C221.38 295.342 219.673 293.918 220.395 292.522C221.107 291.146 224.181 289.8 229.518 288.551C234.778 287.321 242.243 286.189 251.844 285.233H251.864Z" fill="url(#paint62_linear_0_1213)"/>
</g>
<path d="M294.349 254.359C301.726 253.617 310.079 253.071 318.871 252.72C327.614 252.368 336.845 252.193 346.056 252.203C355.268 252.212 364.528 252.407 373.31 252.778C382.141 253.159 390.562 253.715 398.037 254.476C405.599 255.237 411.512 256.135 415.718 257.091C419.992 258.067 422.519 259.121 423.212 260.185C423.924 261.268 422.744 262.37 419.592 263.424C416.381 264.497 411.141 265.512 403.794 266.4C396.348 267.298 387.479 267.981 377.838 268.43C368.129 268.889 357.697 269.113 347.217 269.103C336.728 269.093 326.267 268.85 316.49 268.371C306.771 267.903 297.803 267.2 290.222 266.283C282.737 265.376 277.351 264.351 273.984 263.278C270.677 262.214 269.349 261.112 269.915 260.028C270.472 258.965 272.862 257.911 277.009 256.945C281.098 255.989 286.894 255.11 294.359 254.359H294.349Z" fill="url(#paint63_linear_0_1213)"/>
<path d="M423.407 260.799C423.31 271.143 423.202 281.486 423.095 291.839C423.095 292.444 422.695 293.049 421.905 293.654C421.114 294.259 419.914 294.854 418.314 295.44C416.694 296.025 414.664 296.601 412.215 297.157C409.746 297.713 406.848 298.24 403.53 298.738C396.105 299.85 387.274 300.689 377.662 301.255C367.982 301.821 357.59 302.104 347.14 302.095C336.689 302.095 326.258 301.792 316.519 301.207C306.839 300.631 297.901 299.772 290.339 298.65C286.875 298.133 283.869 297.586 281.293 297.011C278.737 296.445 276.629 295.85 274.941 295.245C273.272 294.64 272.023 294.025 271.194 293.41C270.374 292.795 269.964 292.171 269.964 291.546L269.769 260.506C269.769 261.014 270.179 261.512 270.999 262.019C271.828 262.526 273.077 263.024 274.756 263.512C276.444 264 278.561 264.488 281.127 264.946C283.704 265.415 286.729 265.854 290.202 266.273C297.784 267.191 306.752 267.883 316.471 268.362C326.248 268.84 336.718 269.084 347.198 269.093C357.678 269.103 368.109 268.879 377.818 268.42C387.459 267.971 396.329 267.288 403.774 266.39C407.112 265.99 410.01 265.561 412.488 265.112C414.947 264.663 416.987 264.205 418.606 263.727C420.216 263.248 421.417 262.77 422.207 262.273C422.997 261.785 423.388 261.297 423.398 260.799H423.407Z" fill="url(#paint64_linear_0_1213)"/>
<g filter="url(#filter0_f_0_1213)">
<path d="M381.056 258.584C381.056 260.734 364.895 262.487 344.952 262.487C325.009 262.487 308.848 260.744 308.848 258.584C308.848 256.425 325.009 254.681 344.952 254.681C364.895 254.681 381.056 256.425 381.056 258.584Z" fill="#A6C2FF" fill-opacity="0.5"/>
</g>
<path d="M361.806 259.423C378.744 259.423 392.475 245.692 392.475 228.754C392.475 211.816 378.744 198.085 361.806 198.085C344.868 198.085 331.137 211.816 331.137 228.754C331.137 245.692 344.868 259.423 361.806 259.423Z" fill="url(#paint65_radial_0_1213)"/>
<path d="M359.431 232.5C359.342 232.154 359.162 231.838 358.909 231.585C358.656 231.333 358.34 231.152 357.994 231.063L351.86 229.481C351.755 229.451 351.663 229.388 351.597 229.301C351.532 229.215 351.496 229.109 351.496 229C351.496 228.891 351.532 228.785 351.597 228.699C351.663 228.612 351.755 228.549 351.86 228.519L357.994 226.936C358.34 226.847 358.656 226.667 358.909 226.414C359.161 226.162 359.342 225.846 359.431 225.5L361.013 219.365C361.043 219.26 361.106 219.168 361.193 219.102C361.28 219.036 361.386 219 361.495 219C361.604 219 361.71 219.036 361.797 219.102C361.884 219.168 361.947 219.26 361.976 219.365L363.557 225.5C363.647 225.846 363.827 226.162 364.08 226.415C364.332 226.667 364.648 226.848 364.994 226.937L371.129 228.518C371.235 228.547 371.328 228.61 371.394 228.697C371.46 228.784 371.496 228.891 371.496 229C371.496 229.109 371.46 229.216 371.394 229.303C371.328 229.39 371.235 229.453 371.129 229.482L364.994 231.063C364.648 231.152 364.332 231.333 364.08 231.585C363.827 231.838 363.647 232.154 363.557 232.5L361.975 238.635C361.946 238.74 361.883 238.832 361.796 238.898C361.709 238.964 361.603 239 361.494 239C361.385 239 361.279 238.964 361.192 238.898C361.105 238.832 361.042 238.74 361.012 238.635L359.431 232.5Z" fill="white"/>
<defs>
<filter id="filter0_f_0_1213" x="305.042" y="250.875" width="79.8197" height="15.4175" filterUnits="userSpaceOnUse" color-interpolation-filters="sRGB">
<feFlood flood-opacity="0" result="BackgroundImageFix"/>
<feBlend mode="normal" in="SourceGraphic" in2="BackgroundImageFix" result="shape"/>
<feGaussianBlur stdDeviation="1.90279" result="effect1_foregroundBlur_0_1213"/>
</filter>
<linearGradient id="paint0_linear_0_1213" x1="172.805" y1="51.766" x2="190.467" y2="253.579" gradientUnits="userSpaceOnUse">
<stop stop-color="#D6EAFF"/>
<stop offset="0.49" stop-color="#B9D4F5"/>
<stop offset="1" stop-color="#97BDEE"/>
</linearGradient>
<linearGradient id="paint1_linear_0_1213" x1="217.858" y1="51.1122" x2="235.227" y2="249.656" gradientUnits="userSpaceOnUse">
<stop stop-color="#ECF9FF"/>
<stop offset="0.41" stop-color="#D6EAFF"/>
<stop offset="0.76" stop-color="#B9D4F5"/>
</linearGradient>
<linearGradient id="paint2_linear_0_1213" x1="149.085" y1="273.748" x2="149.085" y2="99.2573" gradientUnits="userSpaceOnUse">
<stop stop-color="#84B4E6"/>
<stop offset="0.23" stop-color="#7FAFE3"/>
<stop offset="0.51" stop-color="#71A2DC"/>
<stop offset="0.8" stop-color="#598BD0"/>
<stop offset="1" stop-color="#4578C6"/>
</linearGradient>
<linearGradient id="paint3_linear_0_1213" x1="157.164" y1="94.1635" x2="166.658" y2="94.1635" gradientUnits="userSpaceOnUse">
<stop stop-color="#84B4E6"/>
<stop offset="0.23" stop-color="#7FAFE3"/>
<stop offset="0.51" stop-color="#71A2DC"/>
<stop offset="0.8" stop-color="#598BD0"/>
<stop offset="1" stop-color="#4578C6"/>
</linearGradient>
<linearGradient id="paint4_linear_0_1213" x1="149.347" y1="95.0125" x2="165.409" y2="278.558" gradientUnits="userSpaceOnUse">
<stop stop-color="#84B4E6"/>
<stop offset="0.23" stop-color="#7FAFE3"/>
<stop offset="0.51" stop-color="#71A2DC"/>
<stop offset="0.8" stop-color="#598BD0"/>
<stop offset="1" stop-color="#4578C6"/>
</linearGradient>
<linearGradient id="paint5_linear_0_1213" x1="175.557" y1="92.9145" x2="191.628" y2="276.568" gradientUnits="userSpaceOnUse">
<stop stop-color="#BEEBFF"/>
<stop offset="0.35" stop-color="#93C4F1"/>
<stop offset="1" stop-color="#7AA9E5"/>
</linearGradient>
<linearGradient id="paint6_linear_0_1213" x1="388.511" y1="310.994" x2="415.141" y2="211.59" gradientUnits="userSpaceOnUse">
<stop stop-color="#D6D3F5" stop-opacity="0"/>
<stop offset="0.07" stop-color="#D6D3F5" stop-opacity="0.06"/>
<stop offset="0.18" stop-color="#D6D3F5" stop-opacity="0.2"/>
<stop offset="0.33" stop-color="#D6D3F5" stop-opacity="0.44"/>
<stop offset="0.51" stop-color="#D6D3F5" stop-opacity="0.77"/>
<stop offset="0.63" stop-color="#D6D3F5"/>
<stop offset="1" stop-color="#D6D3F5"/>
</linearGradient>
<linearGradient id="paint7_linear_0_1213" x1="344.646" y1="39.1985" x2="347.1" y2="4.57056" gradientUnits="userSpaceOnUse">
<stop stop-color="#A7A0F3"/>
<stop offset="1" stop-color="#D1CEFE"/>
</linearGradient>
<linearGradient id="paint8_linear_0_1213" x1="363.906" y1="61.2259" x2="366.103" y2="28.4305" gradientUnits="userSpaceOnUse">
<stop stop-color="#A7A0F3"/>
<stop offset="1" stop-color="#D1CEFE"/>
</linearGradient>
<linearGradient id="paint9_linear_0_1213" x1="383.817" y1="84.3743" x2="385.805" y2="53.1673" gradientUnits="userSpaceOnUse">
<stop stop-color="#A7A0F3"/>
<stop offset="1" stop-color="#D1CEFE"/>
</linearGradient>
<linearGradient id="paint10_linear_0_1213" x1="404.408" y1="110.962" x2="406.516" y2="78.8247" gradientUnits="userSpaceOnUse">
<stop stop-color="#A7A0F3"/>
<stop offset="1" stop-color="#D1CEFE"/>
</linearGradient>
<linearGradient id="paint11_linear_0_1213" x1="425.721" y1="139.225" x2="428.283" y2="103.822" gradientUnits="userSpaceOnUse">
<stop stop-color="#A7A0F3"/>
<stop offset="1" stop-color="#D1CEFE"/>
</linearGradient>
<linearGradient id="paint12_linear_0_1213" x1="447.797" y1="168.573" x2="450.894" y2="129.691" gradientUnits="userSpaceOnUse">
<stop stop-color="#A7A0F3"/>
<stop offset="1" stop-color="#D1CEFE"/>
</linearGradient>
<linearGradient id="paint13_linear_0_1213" x1="470.655" y1="199.07" x2="474.381" y2="156.478" gradientUnits="userSpaceOnUse">
<stop stop-color="#A7A0F3"/>
<stop offset="1" stop-color="#D1CEFE"/>
</linearGradient>
<linearGradient id="paint14_linear_0_1213" x1="494.364" y1="230.774" x2="498.827" y2="184.255" gradientUnits="userSpaceOnUse">
<stop stop-color="#A7A0F3"/>
<stop offset="1" stop-color="#D1CEFE"/>
</linearGradient>
<linearGradient id="paint15_linear_0_1213" x1="518.963" y1="263.765" x2="524.292" y2="213.064" gradientUnits="userSpaceOnUse">
<stop stop-color="#A7A0F3"/>
<stop offset="1" stop-color="#D1CEFE"/>
</linearGradient>
<linearGradient id="paint16_linear_0_1213" x1="544.506" y1="298.104" x2="550.848" y2="242.972" gradientUnits="userSpaceOnUse">
<stop stop-color="#A7A0F3"/>
<stop offset="1" stop-color="#D1CEFE"/>
</linearGradient>
<linearGradient id="paint17_linear_0_1213" x1="411.557" y1="38.3095" x2="520.35" y2="271.623" gradientUnits="userSpaceOnUse">
<stop offset="0.21" stop-color="#CFE8F9"/>
<stop offset="1" stop-color="#A0D1F3"/>
</linearGradient>
<linearGradient id="paint18_linear_0_1213" x1="354.004" y1="100.136" x2="480.388" y2="100.136" gradientUnits="userSpaceOnUse">
<stop stop-color="#F5F4FF"/>
<stop offset="1" stop-color="#C7C3FE"/>
</linearGradient>
<linearGradient id="paint19_linear_0_1213" x1="375.326" y1="126.488" x2="502.413" y2="126.488" gradientUnits="userSpaceOnUse">
<stop stop-color="#F5F4FF"/>
<stop offset="1" stop-color="#C7C3FE"/>
</linearGradient>
<linearGradient id="paint20_linear_0_1213" x1="397.449" y1="153.786" x2="525.18" y2="153.786" gradientUnits="userSpaceOnUse">
<stop stop-color="#F5F4FF"/>
<stop offset="1" stop-color="#C7C3FE"/>
</linearGradient>
<linearGradient id="paint21_linear_0_1213" x1="420.389" y1="182.089" x2="548.754" y2="182.089" gradientUnits="userSpaceOnUse">
<stop stop-color="#F5F4FF"/>
<stop offset="1" stop-color="#C7C3FE"/>
</linearGradient>
<linearGradient id="paint22_linear_0_1213" x1="444.225" y1="211.45" x2="573.165" y2="211.45" gradientUnits="userSpaceOnUse">
<stop stop-color="#F5F4FF"/>
<stop offset="1" stop-color="#C7C3FE"/>
</linearGradient>
<linearGradient id="paint23_linear_0_1213" x1="468.996" y1="241.925" x2="598.483" y2="241.925" gradientUnits="userSpaceOnUse">
<stop stop-color="#F5F4FF"/>
<stop offset="1" stop-color="#C7C3FE"/>
</linearGradient>
<linearGradient id="paint24_linear_0_1213" x1="344.644" y1="39.1985" x2="347.098" y2="4.57056" gradientUnits="userSpaceOnUse">
<stop stop-color="#A7A0F3"/>
<stop offset="1" stop-color="#D1CEFE"/>
</linearGradient>
<linearGradient id="paint25_linear_0_1213" x1="363.904" y1="61.2259" x2="366.101" y2="28.4305" gradientUnits="userSpaceOnUse">
<stop stop-color="#A7A0F3"/>
<stop offset="1" stop-color="#D1CEFE"/>
</linearGradient>
<linearGradient id="paint26_linear_0_1213" x1="383.815" y1="84.3743" x2="385.803" y2="53.1673" gradientUnits="userSpaceOnUse">
<stop stop-color="#A7A0F3"/>
<stop offset="1" stop-color="#D1CEFE"/>
</linearGradient>
<linearGradient id="paint27_linear_0_1213" x1="404.406" y1="110.962" x2="406.514" y2="78.8247" gradientUnits="userSpaceOnUse">
<stop stop-color="#A7A0F3"/>
<stop offset="1" stop-color="#D1CEFE"/>
</linearGradient>
<linearGradient id="paint28_linear_0_1213" x1="425.719" y1="139.225" x2="428.281" y2="103.822" gradientUnits="userSpaceOnUse">
<stop stop-color="#A7A0F3"/>
<stop offset="1" stop-color="#D1CEFE"/>
</linearGradient>
<linearGradient id="paint29_linear_0_1213" x1="447.795" y1="168.573" x2="450.892" y2="129.691" gradientUnits="userSpaceOnUse">
<stop stop-color="#A7A0F3"/>
<stop offset="1" stop-color="#D1CEFE"/>
</linearGradient>
<linearGradient id="paint30_linear_0_1213" x1="470.653" y1="199.07" x2="474.379" y2="156.478" gradientUnits="userSpaceOnUse">
<stop stop-color="#A7A0F3"/>
<stop offset="1" stop-color="#D1CEFE"/>
</linearGradient>
<linearGradient id="paint31_linear_0_1213" x1="494.362" y1="230.774" x2="498.825" y2="184.255" gradientUnits="userSpaceOnUse">
<stop stop-color="#A7A0F3"/>
<stop offset="1" stop-color="#D1CEFE"/>
</linearGradient>
<linearGradient id="paint32_linear_0_1213" x1="518.961" y1="263.765" x2="524.29" y2="213.064" gradientUnits="userSpaceOnUse">
<stop stop-color="#A7A0F3"/>
<stop offset="1" stop-color="#D1CEFE"/>
</linearGradient>
<linearGradient id="paint33_linear_0_1213" x1="531.923" y1="270.06" x2="536.525" y2="249.799" gradientUnits="userSpaceOnUse">
<stop stop-color="#A7A0F3"/>
<stop offset="1" stop-color="#D1CEFE"/>
</linearGradient>
<linearGradient id="paint34_linear_0_1213" x1="344.644" y1="39.1985" x2="347.098" y2="4.57056" gradientUnits="userSpaceOnUse">
<stop stop-color="#A7A0F3"/>
<stop offset="1" stop-color="#D1CEFE"/>
</linearGradient>
<linearGradient id="paint35_linear_0_1213" x1="363.904" y1="61.2259" x2="366.101" y2="28.4305" gradientUnits="userSpaceOnUse">
<stop stop-color="#A7A0F3"/>
<stop offset="1" stop-color="#D1CEFE"/>
</linearGradient>
<linearGradient id="paint36_linear_0_1213" x1="383.815" y1="84.3743" x2="385.803" y2="53.1673" gradientUnits="userSpaceOnUse">
<stop stop-color="#A7A0F3"/>
<stop offset="1" stop-color="#D1CEFE"/>
</linearGradient>
<linearGradient id="paint37_linear_0_1213" x1="404.406" y1="110.962" x2="406.514" y2="78.8247" gradientUnits="userSpaceOnUse">
<stop stop-color="#A7A0F3"/>
<stop offset="1" stop-color="#D1CEFE"/>
</linearGradient>
<linearGradient id="paint38_linear_0_1213" x1="425.719" y1="139.225" x2="428.281" y2="103.822" gradientUnits="userSpaceOnUse">
<stop stop-color="#A7A0F3"/>
<stop offset="1" stop-color="#D1CEFE"/>
</linearGradient>
<linearGradient id="paint39_linear_0_1213" x1="447.795" y1="168.573" x2="450.892" y2="129.691" gradientUnits="userSpaceOnUse">
<stop stop-color="#A7A0F3"/>
<stop offset="1" stop-color="#D1CEFE"/>
</linearGradient>
<linearGradient id="paint40_linear_0_1213" x1="470.653" y1="199.07" x2="474.379" y2="156.478" gradientUnits="userSpaceOnUse">
<stop stop-color="#A7A0F3"/>
<stop offset="1" stop-color="#D1CEFE"/>
</linearGradient>
<linearGradient id="paint41_linear_0_1213" x1="494.362" y1="230.774" x2="498.825" y2="184.255" gradientUnits="userSpaceOnUse">
<stop stop-color="#A7A0F3"/>
<stop offset="1" stop-color="#D1CEFE"/>
</linearGradient>
<linearGradient id="paint42_linear_0_1213" x1="518.961" y1="263.765" x2="524.29" y2="213.064" gradientUnits="userSpaceOnUse">
<stop stop-color="#A7A0F3"/>
<stop offset="1" stop-color="#D1CEFE"/>
</linearGradient>
<linearGradient id="paint43_linear_0_1213" x1="294.004" y1="-6.00504e-05" x2="385.905" y2="280.92" gradientUnits="userSpaceOnUse">
<stop stop-color="#D6D3F5"/>
<stop offset="1" stop-color="#B2ABFC"/>
</linearGradient>
<linearGradient id="paint44_linear_0_1213" x1="150.811" y1="322.04" x2="173.273" y2="238.239" gradientUnits="userSpaceOnUse">
<stop stop-color="#BFE0FD" stop-opacity="0"/>
<stop offset="0.03" stop-color="#B9DBFA" stop-opacity="0.06"/>
<stop offset="0.34" stop-color="#8BB4E0" stop-opacity="0.56"/>
<stop offset="0.55" stop-color="#6E9BD1" stop-opacity="0.88"/>
<stop offset="0.65" stop-color="#6392CB"/>
<stop offset="1" stop-color="#3870B5"/>
</linearGradient>
<linearGradient id="paint45_linear_0_1213" x1="256.953" y1="141.909" x2="250.493" y2="178.54" gradientUnits="userSpaceOnUse">
<stop stop-color="#80A6E4"/>
<stop offset="0.42" stop-color="#7198DC"/>
<stop offset="1" stop-color="#577ECF"/>
</linearGradient>
<linearGradient id="paint46_linear_0_1213" x1="231.046" y1="169.338" x2="225.074" y2="203.179" gradientUnits="userSpaceOnUse">
<stop stop-color="#80A6E4"/>
<stop offset="0.42" stop-color="#7198DC"/>
<stop offset="1" stop-color="#577ECF"/>
</linearGradient>
<linearGradient id="paint47_linear_0_1213" x1="204.508" y1="197.461" x2="199.063" y2="228.354" gradientUnits="userSpaceOnUse">
<stop stop-color="#80A6E4"/>
<stop offset="0.42" stop-color="#7198DC"/>
<stop offset="1" stop-color="#577ECF"/>
</linearGradient>
<linearGradient id="paint48_linear_0_1213" x1="177.331" y1="226.305" x2="172.423" y2="254.105" gradientUnits="userSpaceOnUse">
<stop stop-color="#80A6E4"/>
<stop offset="0.42" stop-color="#7198DC"/>
<stop offset="1" stop-color="#577ECF"/>
</linearGradient>
<linearGradient id="paint49_linear_0_1213" x1="149.471" y1="255.901" x2="144.777" y2="282.53" gradientUnits="userSpaceOnUse">
<stop stop-color="#80A6E4"/>
<stop offset="0.42" stop-color="#7198DC"/>
<stop offset="1" stop-color="#577ECF"/>
</linearGradient>
<linearGradient id="paint50_linear_0_1213" x1="231.044" y1="169.338" x2="225.072" y2="203.178" gradientUnits="userSpaceOnUse">
<stop stop-color="#84A6E6"/>
<stop offset="0.3" stop-color="#7B9DE1"/>
<stop offset="0.77" stop-color="#6486D5"/>
<stop offset="1" stop-color="#5779CF"/>
</linearGradient>
<linearGradient id="paint51_linear_0_1213" x1="215.948" y1="134.688" x2="188.519" y2="290.248" gradientUnits="userSpaceOnUse">
<stop offset="0.18" stop-color="#CDDFFF"/>
<stop offset="0.28" stop-color="#C2D6FC"/>
<stop offset="0.76" stop-color="#8EAAF1"/>
<stop offset="1" stop-color="#7A9AED"/>
</linearGradient>
<linearGradient id="paint52_linear_0_1213" x1="215.948" y1="134.688" x2="188.519" y2="290.248" gradientUnits="userSpaceOnUse">
<stop offset="0.18" stop-color="#CDDFFF"/>
<stop offset="0.28" stop-color="#C2D6FC"/>
<stop offset="0.76" stop-color="#8EAAF1"/>
<stop offset="1" stop-color="#7A9AED"/>
</linearGradient>
<linearGradient id="paint53_linear_0_1213" x1="215.951" y1="134.688" x2="188.522" y2="290.248" gradientUnits="userSpaceOnUse">
<stop offset="0.18" stop-color="#CDDFFF"/>
<stop offset="0.28" stop-color="#C2D6FC"/>
<stop offset="0.76" stop-color="#8EAAF1"/>
<stop offset="1" stop-color="#7A9AED"/>
</linearGradient>
<linearGradient id="paint54_linear_0_1213" x1="215.95" y1="134.688" x2="188.521" y2="290.248" gradientUnits="userSpaceOnUse">
<stop offset="0.18" stop-color="#CDDFFF"/>
<stop offset="0.28" stop-color="#C2D6FC"/>
<stop offset="0.76" stop-color="#8EAAF1"/>
<stop offset="1" stop-color="#7A9AED"/>
</linearGradient>
<linearGradient id="paint55_linear_0_1213" x1="215.949" y1="134.688" x2="188.52" y2="290.248" gradientUnits="userSpaceOnUse">
<stop offset="0.18" stop-color="#CDDFFF"/>
<stop offset="0.28" stop-color="#C2D6FC"/>
<stop offset="0.76" stop-color="#8EAAF1"/>
<stop offset="1" stop-color="#7A9AED"/>
</linearGradient>
<linearGradient id="paint56_linear_0_1213" x1="253.282" y1="117.222" x2="177.2" y2="280.374" gradientUnits="userSpaceOnUse">
<stop offset="0.21" stop-color="#CFE4F9"/>
<stop offset="1" stop-color="#A0C1F3"/>
</linearGradient>
<linearGradient id="paint57_linear_0_1213" x1="253.282" y1="117.221" x2="177.2" y2="280.373" gradientUnits="userSpaceOnUse">
<stop offset="0.21" stop-color="#CFE4F9"/>
<stop offset="1" stop-color="#A0C1F3"/>
</linearGradient>
<linearGradient id="paint58_linear_0_1213" x1="253.285" y1="117.222" x2="177.203" y2="280.374" gradientUnits="userSpaceOnUse">
<stop offset="0.21" stop-color="#CFE4F9"/>
<stop offset="1" stop-color="#A0C1F3"/>
</linearGradient>
<linearGradient id="paint59_linear_0_1213" x1="253.284" y1="117.222" x2="177.202" y2="280.374" gradientUnits="userSpaceOnUse">
<stop offset="0.21" stop-color="#CFE4F9"/>
<stop offset="1" stop-color="#A0C1F3"/>
</linearGradient>
<linearGradient id="paint60_linear_0_1213" x1="253.283" y1="117.222" x2="177.201" y2="280.374" gradientUnits="userSpaceOnUse">
<stop offset="0.21" stop-color="#CFE4F9"/>
<stop offset="1" stop-color="#A0C1F3"/>
</linearGradient>
<linearGradient id="paint61_linear_0_1213" x1="244.317" y1="152.262" x2="255.724" y2="282.628" gradientUnits="userSpaceOnUse">
<stop stop-color="#99BDF1"/>
<stop offset="1" stop-color="#7A9DE5"/>
</linearGradient>
<linearGradient id="paint62_linear_0_1213" x1="311.963" y1="319.883" x2="326.2" y2="266.761" gradientUnits="userSpaceOnUse">
<stop stop-color="#BFE0FD" stop-opacity="0"/>
<stop offset="0.03" stop-color="#B9DBFA" stop-opacity="0.06"/>
<stop offset="0.27" stop-color="#8BB4E0" stop-opacity="0.56"/>
<stop offset="0.44" stop-color="#6E9BD1" stop-opacity="0.88"/>
<stop offset="0.52" stop-color="#6392CB"/>
<stop offset="1" stop-color="#3870B5"/>
</linearGradient>
<linearGradient id="paint63_linear_0_1213" x1="269.779" y1="260.643" x2="423.407" y2="260.643" gradientUnits="userSpaceOnUse">
<stop stop-color="#D6EAFF"/>
<stop offset="1" stop-color="white"/>
</linearGradient>
<linearGradient id="paint64_linear_0_1213" x1="269.779" y1="281.301" x2="423.407" y2="281.301" gradientUnits="userSpaceOnUse">
<stop stop-color="#97BDEE"/>
<stop offset="0.29" stop-color="#B9D4F5"/>
<stop offset="0.52" stop-color="#D6EAFF"/>
<stop offset="0.75" stop-color="#ECF9FF"/>
<stop offset="1" stop-color="#D6EAFF"/>
</linearGradient>
<radialGradient id="paint65_radial_0_1213" cx="0" cy="0" r="1" gradientUnits="userSpaceOnUse" gradientTransform="translate(342.191 217.914) scale(43.8914)">
<stop stop-color="#A9C4FF"/>
<stop offset="0.198" stop-color="#A6C2FF"/>
<stop offset="0.4921" stop-color="#8CB1FF"/>
<stop offset="0.8443" stop-color="#4679E6"/>
<stop offset="1" stop-color="#3970E6"/>
</radialGradient>
</defs>
</svg>
