<svg width="20" height="21" viewBox="0 0 20 21" fill="none" xmlns="http://www.w3.org/2000/svg">
<path d="M10 20.5C15.5229 20.5 20 16.0228 20 10.5C20 4.97715 15.5229 0.5 10 0.5C4.47716 0.5 0 4.97715 0 10.5C0 16.0228 4.47716 20.5 10 20.5Z" fill="url(#paint0_radial_0_361)"/>
<path d="M9.22099 12.2309C9.18528 12.0925 9.11312 11.9661 9.01204 11.8651C8.91095 11.764 8.78463 11.6918 8.6462 11.6561L6.19226 11.0233C6.15039 11.0114 6.11355 10.9862 6.08731 10.9515C6.06107 10.9168 6.04688 10.8745 6.04688 10.8309C6.04688 10.7874 6.06107 10.7451 6.08731 10.7104C6.11355 10.6756 6.15039 10.6504 6.19226 10.6385L8.6462 10.0054C8.78458 9.96968 8.91087 9.89759 9.01195 9.79657C9.11303 9.69556 9.18521 9.56932 9.22099 9.43097L9.85377 6.97703C9.86553 6.935 9.89072 6.89797 9.9255 6.87159C9.96027 6.84521 10.0027 6.83093 10.0464 6.83093C10.09 6.83093 10.1325 6.84521 10.1672 6.87159C10.202 6.89797 10.2272 6.935 10.239 6.97703L10.8713 9.43097C10.9071 9.56939 10.9792 9.69572 11.0803 9.79681C11.1814 9.89789 11.3077 9.97004 11.4461 10.0058L13.9001 10.6381C13.9423 10.6498 13.9795 10.6749 14.006 10.7098C14.0325 10.7446 14.0469 10.7872 14.0469 10.8309C14.0469 10.8747 14.0325 10.9173 14.006 10.9521C13.9795 10.9869 13.9423 11.0121 13.9001 11.0237L11.4461 11.6561C11.3077 11.6918 11.1814 11.764 11.0803 11.8651C10.9792 11.9661 10.9071 12.0925 10.8713 12.2309L10.2386 14.6848C10.2268 14.7269 10.2016 14.7639 10.1668 14.7903C10.1321 14.8167 10.0896 14.8309 10.046 14.8309C10.0023 14.8309 9.95987 14.8167 9.9251 14.7903C9.89032 14.7639 9.86513 14.7269 9.85337 14.6848L9.22099 12.2309Z" fill="white"/>
<defs>
<radialGradient id="paint0_radial_0_361" cx="0" cy="0" r="1" gradientUnits="userSpaceOnUse" gradientTransform="translate(3.60422 6.96543) scale(14.3113)">
<stop stop-color="#A9C4FF"/>
<stop offset="0.198" stop-color="#A6C2FF"/>
<stop offset="0.4921" stop-color="#8CB1FF"/>
<stop offset="0.8443" stop-color="#4679E6"/>
<stop offset="1" stop-color="#3970E6"/>
</radialGradient>
</defs>
</svg>
